<mxfile host="Electron" modified="2023-06-21T21:36:02.889Z" agent="Mozilla/5.0 (Macintosh; Intel Mac OS X 10_15_7) AppleWebKit/537.36 (KHTML, like Gecko) draw.io/21.5.0 Chrome/112.0.5615.204 Electron/24.5.1 Safari/537.36" etag="bMWCUEzsr35QpjKV-uu_" version="21.5.0" type="device">
  <diagram id="R2lEEEUBdFMjLlhIrx00" name="Page-1">
    <mxGraphModel dx="2542" dy="1115" grid="1" gridSize="10" guides="1" tooltips="1" connect="1" arrows="1" fold="1" page="1" pageScale="1" pageWidth="850" pageHeight="1100" background="none" math="0" shadow="0" extFonts="Permanent Marker^https://fonts.googleapis.com/css?family=Permanent+Marker">
      <root>
        <mxCell id="0" />
        <mxCell id="1" parent="0" />
        <mxCell id="wVbVgi7mBvC_HDMRMZZE-150" value="STUDENT" style="whiteSpace=wrap;html=1;align=center;shadow=0;sketch=0;fillStyle=solid;strokeColor=#330000;strokeWidth=1;fillColor=#FFFFFF;" parent="1" vertex="1">
          <mxGeometry x="-429.5" y="40" width="100" height="40" as="geometry" />
        </mxCell>
        <mxCell id="wVbVgi7mBvC_HDMRMZZE-151" value="COURSE" style="whiteSpace=wrap;html=1;align=center;shadow=0;sketch=0;fillStyle=solid;strokeColor=#330000;strokeWidth=1;fillColor=#FFFFFF;" parent="1" vertex="1">
          <mxGeometry x="-49.5" y="40" width="100" height="40" as="geometry" />
        </mxCell>
        <mxCell id="wVbVgi7mBvC_HDMRMZZE-152" value="INSTRUCTOR" style="whiteSpace=wrap;html=1;align=center;shadow=0;sketch=0;fillStyle=solid;strokeColor=#330000;strokeWidth=1;fillColor=#FFFFFF;" parent="1" vertex="1">
          <mxGeometry x="-49.5" y="280" width="100" height="40" as="geometry" />
        </mxCell>
        <mxCell id="wVbVgi7mBvC_HDMRMZZE-153" value="ENROLLMENT" style="shape=rhombus;perimeter=rhombusPerimeter;whiteSpace=wrap;html=1;align=center;shadow=0;sketch=0;fillStyle=solid;strokeColor=#330000;strokeWidth=1;fillColor=#FFFFFF;" parent="1" vertex="1">
          <mxGeometry x="-249.5" y="30" width="120" height="60" as="geometry" />
        </mxCell>
        <mxCell id="wVbVgi7mBvC_HDMRMZZE-154" value="TEACHING" style="shape=rhombus;perimeter=rhombusPerimeter;whiteSpace=wrap;html=1;align=center;shadow=0;sketch=0;fillStyle=solid;strokeColor=#330000;strokeWidth=1;fillColor=#FFFFFF;" parent="1" vertex="1">
          <mxGeometry x="-59.5" y="150" width="120" height="60" as="geometry" />
        </mxCell>
        <mxCell id="wVbVgi7mBvC_HDMRMZZE-155" value="" style="endArrow=none;html=1;rounded=0;" parent="1" edge="1">
          <mxGeometry relative="1" as="geometry">
            <mxPoint x="-329.5" y="60" as="sourcePoint" />
            <mxPoint x="-249.5" y="60" as="targetPoint" />
          </mxGeometry>
        </mxCell>
        <mxCell id="wVbVgi7mBvC_HDMRMZZE-156" value="" style="endArrow=none;html=1;rounded=0;" parent="1" edge="1">
          <mxGeometry relative="1" as="geometry">
            <mxPoint x="-129.5" y="60" as="sourcePoint" />
            <mxPoint x="-49.5" y="60" as="targetPoint" />
          </mxGeometry>
        </mxCell>
        <mxCell id="wVbVgi7mBvC_HDMRMZZE-157" value="" style="endArrow=none;html=1;rounded=0;" parent="1" edge="1">
          <mxGeometry relative="1" as="geometry">
            <mxPoint x="0.5" y="80" as="sourcePoint" />
            <mxPoint x="0.5" y="150" as="targetPoint" />
          </mxGeometry>
        </mxCell>
        <mxCell id="wVbVgi7mBvC_HDMRMZZE-159" value="" style="endArrow=none;html=1;rounded=0;" parent="1" edge="1">
          <mxGeometry relative="1" as="geometry">
            <mxPoint x="0.5" y="210" as="sourcePoint" />
            <mxPoint x="0.5" y="280" as="targetPoint" />
          </mxGeometry>
        </mxCell>
        <mxCell id="wVbVgi7mBvC_HDMRMZZE-161" style="edgeStyle=none;rounded=0;orthogonalLoop=1;jettySize=auto;html=1;" parent="1" edge="1">
          <mxGeometry relative="1" as="geometry">
            <mxPoint x="-272" y="120" as="targetPoint" />
            <mxPoint x="-378.66666666666674" y="160" as="sourcePoint" />
          </mxGeometry>
        </mxCell>
        <mxCell id="wVbVgi7mBvC_HDMRMZZE-160" value="SKELETON SCHEMA OF DATABASE THAT MANAGES &lt;br&gt;AN ONLINE LEARNING PLATFORM" style="text;html=1;align=center;verticalAlign=middle;resizable=0;points=[];autosize=1;strokeColor=none;fillColor=none;" parent="1" vertex="1">
          <mxGeometry x="-590" y="160" width="320" height="40" as="geometry" />
        </mxCell>
        <mxCell id="wVbVgi7mBvC_HDMRMZZE-194" style="edgeStyle=none;rounded=0;orthogonalLoop=1;jettySize=auto;html=1;exitX=0.25;exitY=0;exitDx=0;exitDy=0;" parent="1" edge="1">
          <mxGeometry relative="1" as="geometry">
            <mxPoint x="-645" y="514" as="targetPoint" />
            <mxPoint x="-640" y="574" as="sourcePoint" />
          </mxGeometry>
        </mxCell>
        <mxCell id="wVbVgi7mBvC_HDMRMZZE-163" value="STUDENT" style="whiteSpace=wrap;html=1;align=center;shadow=0;sketch=0;fillStyle=solid;strokeColor=#330000;strokeWidth=1;fillColor=#FFFFFF;" parent="1" vertex="1">
          <mxGeometry x="-640" y="574" width="100" height="40" as="geometry" />
        </mxCell>
        <mxCell id="wVbVgi7mBvC_HDMRMZZE-164" value="COURSE" style="whiteSpace=wrap;html=1;align=center;shadow=0;sketch=0;fillStyle=solid;strokeColor=#330000;strokeWidth=1;fillColor=#FFFFFF;" parent="1" vertex="1">
          <mxGeometry x="-257.5" y="574" width="100" height="40" as="geometry" />
        </mxCell>
        <mxCell id="wVbVgi7mBvC_HDMRMZZE-165" value="ENROLLMENT" style="shape=rhombus;perimeter=rhombusPerimeter;whiteSpace=wrap;html=1;align=center;shadow=0;sketch=0;fillStyle=solid;strokeColor=#330000;strokeWidth=1;fillColor=#FFFFFF;" parent="1" vertex="1">
          <mxGeometry x="-462.5" y="564" width="120" height="60" as="geometry" />
        </mxCell>
        <mxCell id="wVbVgi7mBvC_HDMRMZZE-167" value="" style="endArrow=none;html=1;rounded=0;" parent="1" edge="1">
          <mxGeometry relative="1" as="geometry">
            <mxPoint x="-540" y="594" as="sourcePoint" />
            <mxPoint x="-460" y="594" as="targetPoint" />
          </mxGeometry>
        </mxCell>
        <mxCell id="wVbVgi7mBvC_HDMRMZZE-168" value="(1, N)" style="resizable=0;html=1;align=left;verticalAlign=bottom;shadow=0;sketch=0;fillStyle=solid;strokeColor=#330000;strokeWidth=1;fillColor=#FFFFFF;" parent="wVbVgi7mBvC_HDMRMZZE-167" connectable="0" vertex="1">
          <mxGeometry x="-1" relative="1" as="geometry">
            <mxPoint x="5" as="offset" />
          </mxGeometry>
        </mxCell>
        <mxCell id="wVbVgi7mBvC_HDMRMZZE-173" value="" style="endArrow=none;html=1;rounded=0;" parent="1" edge="1">
          <mxGeometry relative="1" as="geometry">
            <mxPoint x="-343" y="594" as="sourcePoint" />
            <mxPoint x="-257.5" y="594" as="targetPoint" />
          </mxGeometry>
        </mxCell>
        <mxCell id="wVbVgi7mBvC_HDMRMZZE-174" value="(1, N)" style="resizable=0;html=1;align=left;verticalAlign=bottom;shadow=0;sketch=0;fillStyle=solid;strokeColor=#330000;strokeWidth=1;fillColor=#FFFFFF;" parent="wVbVgi7mBvC_HDMRMZZE-173" connectable="0" vertex="1">
          <mxGeometry x="-1" relative="1" as="geometry">
            <mxPoint x="47" as="offset" />
          </mxGeometry>
        </mxCell>
        <mxCell id="wVbVgi7mBvC_HDMRMZZE-178" value="firstName" style="text;html=1;align=center;verticalAlign=middle;resizable=0;points=[];autosize=1;strokeColor=none;fillColor=none;" parent="1" vertex="1">
          <mxGeometry x="-705" y="480" width="70" height="30" as="geometry" />
        </mxCell>
        <mxCell id="wVbVgi7mBvC_HDMRMZZE-184" value="" style="edgeStyle=none;rounded=0;orthogonalLoop=1;jettySize=auto;html=1;exitX=0.75;exitY=0;exitDx=0;exitDy=0;endArrow=none;" parent="1" target="wVbVgi7mBvC_HDMRMZZE-183" edge="1">
          <mxGeometry relative="1" as="geometry">
            <mxPoint x="-535" y="514" as="targetPoint" />
            <mxPoint x="-540" y="574" as="sourcePoint" />
          </mxGeometry>
        </mxCell>
        <mxCell id="wVbVgi7mBvC_HDMRMZZE-183" value="" style="ellipse;whiteSpace=wrap;html=1;fillColor=#FFFFFF;strokeColor=#330000;shadow=0;sketch=0;fillStyle=solid;strokeWidth=1;" parent="1" vertex="1">
          <mxGeometry x="-545" y="504" width="20" height="20" as="geometry" />
        </mxCell>
        <mxCell id="wVbVgi7mBvC_HDMRMZZE-195" value="" style="ellipse;whiteSpace=wrap;html=1;fillColor=#FFFFFF;strokeColor=#330000;shadow=0;sketch=0;fillStyle=solid;strokeWidth=1;" parent="1" vertex="1">
          <mxGeometry x="-655" y="504" width="20" height="20" as="geometry" />
        </mxCell>
        <mxCell id="wVbVgi7mBvC_HDMRMZZE-198" value="genre" style="text;html=1;align=center;verticalAlign=middle;resizable=0;points=[];autosize=1;strokeColor=none;fillColor=none;" parent="1" vertex="1">
          <mxGeometry x="-535" y="480" width="50" height="30" as="geometry" />
        </mxCell>
        <mxCell id="wVbVgi7mBvC_HDMRMZZE-218" value="" style="endArrow=none;html=1;rounded=0;" parent="1" edge="1">
          <mxGeometry width="50" height="50" relative="1" as="geometry">
            <mxPoint x="-640" y="614" as="sourcePoint" />
            <mxPoint x="-650" y="674" as="targetPoint" />
          </mxGeometry>
        </mxCell>
        <mxCell id="wVbVgi7mBvC_HDMRMZZE-220" value="" style="ellipse;whiteSpace=wrap;html=1;aspect=fixed;shadow=0;sketch=0;fillStyle=solid;strokeColor=#330000;strokeWidth=1;fillColor=#FFFFFF;" parent="1" vertex="1">
          <mxGeometry x="-661" y="668" width="20" height="20" as="geometry" />
        </mxCell>
        <mxCell id="wVbVgi7mBvC_HDMRMZZE-221" value="dateOfBirth" style="text;html=1;align=center;verticalAlign=middle;resizable=0;points=[];autosize=1;strokeColor=none;fillColor=none;" parent="1" vertex="1">
          <mxGeometry x="-734" y="670" width="80" height="30" as="geometry" />
        </mxCell>
        <mxCell id="wVbVgi7mBvC_HDMRMZZE-222" style="edgeStyle=none;rounded=0;orthogonalLoop=1;jettySize=auto;html=1;exitX=0.75;exitY=0;exitDx=0;exitDy=0;startArrow=none;" parent="1" source="wVbVgi7mBvC_HDMRMZZE-226" edge="1">
          <mxGeometry relative="1" as="geometry">
            <mxPoint x="-172.5" y="514" as="targetPoint" />
          </mxGeometry>
        </mxCell>
        <mxCell id="wVbVgi7mBvC_HDMRMZZE-223" style="edgeStyle=none;rounded=0;orthogonalLoop=1;jettySize=auto;html=1;exitX=0.25;exitY=0;exitDx=0;exitDy=0;" parent="1" edge="1">
          <mxGeometry relative="1" as="geometry">
            <mxPoint x="-232.5" y="514" as="targetPoint" />
            <mxPoint x="-227.5" y="574" as="sourcePoint" />
          </mxGeometry>
        </mxCell>
        <mxCell id="wVbVgi7mBvC_HDMRMZZE-224" value="courseName" style="text;html=1;align=center;verticalAlign=middle;resizable=0;points=[];autosize=1;strokeColor=none;fillColor=none;" parent="1" vertex="1">
          <mxGeometry x="-302.5" y="480" width="90" height="30" as="geometry" />
        </mxCell>
        <mxCell id="wVbVgi7mBvC_HDMRMZZE-225" value="" style="edgeStyle=none;rounded=0;orthogonalLoop=1;jettySize=auto;html=1;exitX=0.75;exitY=0;exitDx=0;exitDy=0;endArrow=none;" parent="1" target="wVbVgi7mBvC_HDMRMZZE-226" edge="1">
          <mxGeometry relative="1" as="geometry">
            <mxPoint x="-172.5" y="514" as="targetPoint" />
            <mxPoint x="-177.5" y="574" as="sourcePoint" />
          </mxGeometry>
        </mxCell>
        <mxCell id="wVbVgi7mBvC_HDMRMZZE-226" value="" style="ellipse;whiteSpace=wrap;html=1;fillColor=#FFFFFF;strokeColor=#330000;shadow=0;sketch=0;fillStyle=solid;strokeWidth=1;" parent="1" vertex="1">
          <mxGeometry x="-182.5" y="504" width="20" height="20" as="geometry" />
        </mxCell>
        <mxCell id="wVbVgi7mBvC_HDMRMZZE-227" value="" style="ellipse;whiteSpace=wrap;html=1;fillColor=#FFFFFF;strokeColor=#330000;shadow=0;sketch=0;fillStyle=solid;strokeWidth=1;" parent="1" vertex="1">
          <mxGeometry x="-242.5" y="504" width="20" height="20" as="geometry" />
        </mxCell>
        <mxCell id="wVbVgi7mBvC_HDMRMZZE-228" value="" style="shape=waypoint;fillStyle=solid;size=6;pointerEvents=1;points=[];resizable=0;rotatable=0;perimeter=centerPerimeter;snapToPoint=1;strokeWidth=3;fillColor=none;strokeColor=default;perimeterSpacing=0;shadow=0;sketch=0;flipV=0;flipH=0;" parent="1" vertex="1">
          <mxGeometry x="-239.5" y="544.0000000000001" width="20" height="20" as="geometry" />
        </mxCell>
        <mxCell id="wVbVgi7mBvC_HDMRMZZE-229" value="" style="shape=waypoint;fillStyle=solid;size=6;pointerEvents=1;points=[];resizable=0;rotatable=0;perimeter=centerPerimeter;snapToPoint=1;strokeWidth=3;fillColor=none;strokeColor=default;perimeterSpacing=0;shadow=0;sketch=0;flipV=0;flipH=0;" parent="1" vertex="1">
          <mxGeometry x="-185.5" y="544.0000000000001" width="20" height="20" as="geometry" />
        </mxCell>
        <mxCell id="wVbVgi7mBvC_HDMRMZZE-230" value="" style="curved=1;endArrow=classic;html=1;rounded=0;entryX=0.574;entryY=0.321;entryDx=0;entryDy=0;entryPerimeter=0;" parent="1" target="wVbVgi7mBvC_HDMRMZZE-231" edge="1">
          <mxGeometry width="50" height="50" relative="1" as="geometry">
            <mxPoint x="-257.5" y="564" as="sourcePoint" />
            <mxPoint x="-127.25" y="544" as="targetPoint" />
            <Array as="points">
              <mxPoint x="-257.25" y="564" />
              <mxPoint x="-227.25" y="544" />
            </Array>
          </mxGeometry>
        </mxCell>
        <mxCell id="wVbVgi7mBvC_HDMRMZZE-231" value="" style="shape=waypoint;fillStyle=solid;size=6;pointerEvents=1;points=[];resizable=0;rotatable=0;perimeter=centerPerimeter;snapToPoint=1;strokeWidth=8;fillColor=none;strokeColor=default;perimeterSpacing=0;shadow=0;sketch=0;" parent="1" vertex="1">
          <mxGeometry x="-140" y="549.0000000000001" width="20" height="20" as="geometry" />
        </mxCell>
        <mxCell id="wVbVgi7mBvC_HDMRMZZE-232" value="courseYear" style="text;html=1;align=center;verticalAlign=middle;resizable=0;points=[];autosize=1;strokeColor=none;fillColor=none;" parent="1" vertex="1">
          <mxGeometry x="-177.5" y="482" width="80" height="30" as="geometry" />
        </mxCell>
        <mxCell id="wVbVgi7mBvC_HDMRMZZE-233" value="" style="endArrow=none;html=1;rounded=0;" parent="1" edge="1">
          <mxGeometry width="50" height="50" relative="1" as="geometry">
            <mxPoint x="-194" y="614" as="sourcePoint" />
            <mxPoint x="-170" y="663" as="targetPoint" />
          </mxGeometry>
        </mxCell>
        <mxCell id="wVbVgi7mBvC_HDMRMZZE-234" value="" style="ellipse;whiteSpace=wrap;html=1;aspect=fixed;shadow=0;sketch=0;fillStyle=solid;strokeColor=#330000;strokeWidth=1;fillColor=#FFFFFF;" parent="1" vertex="1">
          <mxGeometry x="-178.5" y="663" width="20" height="20" as="geometry" />
        </mxCell>
        <mxCell id="wVbVgi7mBvC_HDMRMZZE-236" value="instructor" style="text;html=1;align=center;verticalAlign=middle;resizable=0;points=[];autosize=1;strokeColor=none;fillColor=none;" parent="1" vertex="1">
          <mxGeometry x="-161.5" y="669" width="70" height="30" as="geometry" />
        </mxCell>
        <mxCell id="wVbVgi7mBvC_HDMRMZZE-240" style="edgeStyle=none;rounded=0;orthogonalLoop=1;jettySize=auto;html=1;exitX=0.75;exitY=0;exitDx=0;exitDy=0;startArrow=none;" parent="1" source="wVbVgi7mBvC_HDMRMZZE-251" edge="1">
          <mxGeometry relative="1" as="geometry">
            <mxPoint x="-325" y="934" as="targetPoint" />
          </mxGeometry>
        </mxCell>
        <mxCell id="wVbVgi7mBvC_HDMRMZZE-241" style="edgeStyle=none;rounded=0;orthogonalLoop=1;jettySize=auto;html=1;exitX=0.25;exitY=0;exitDx=0;exitDy=0;" parent="1" source="wVbVgi7mBvC_HDMRMZZE-242" edge="1">
          <mxGeometry relative="1" as="geometry">
            <mxPoint x="-385" y="934" as="targetPoint" />
          </mxGeometry>
        </mxCell>
        <mxCell id="wVbVgi7mBvC_HDMRMZZE-242" value="EDITOR" style="whiteSpace=wrap;html=1;align=center;shadow=0;sketch=0;fillStyle=solid;strokeColor=#330000;strokeWidth=1;fillColor=#FFFFFF;" parent="1" vertex="1">
          <mxGeometry x="-405" y="994" width="100" height="40" as="geometry" />
        </mxCell>
        <mxCell id="wVbVgi7mBvC_HDMRMZZE-243" value="WRITER" style="whiteSpace=wrap;html=1;align=center;shadow=0;sketch=0;fillStyle=solid;strokeColor=#330000;strokeWidth=1;fillColor=#FFFFFF;" parent="1" vertex="1">
          <mxGeometry x="-22.5" y="994" width="100" height="40" as="geometry" />
        </mxCell>
        <mxCell id="wVbVgi7mBvC_HDMRMZZE-244" value="HIRING" style="shape=rhombus;perimeter=rhombusPerimeter;whiteSpace=wrap;html=1;align=center;shadow=0;sketch=0;fillStyle=solid;strokeColor=#330000;strokeWidth=1;fillColor=#FFFFFF;" parent="1" vertex="1">
          <mxGeometry x="-227.5" y="984" width="120" height="60" as="geometry" />
        </mxCell>
        <mxCell id="wVbVgi7mBvC_HDMRMZZE-245" value="" style="endArrow=none;html=1;rounded=0;" parent="1" edge="1">
          <mxGeometry relative="1" as="geometry">
            <mxPoint x="-305" y="1014" as="sourcePoint" />
            <mxPoint x="-225" y="1014" as="targetPoint" />
          </mxGeometry>
        </mxCell>
        <mxCell id="wVbVgi7mBvC_HDMRMZZE-246" value="(1, N)" style="resizable=0;html=1;align=left;verticalAlign=bottom;shadow=0;sketch=0;fillStyle=solid;strokeColor=#330000;strokeWidth=1;fillColor=#FFFFFF;" parent="wVbVgi7mBvC_HDMRMZZE-245" connectable="0" vertex="1">
          <mxGeometry x="-1" relative="1" as="geometry">
            <mxPoint x="5" as="offset" />
          </mxGeometry>
        </mxCell>
        <mxCell id="wVbVgi7mBvC_HDMRMZZE-247" value="" style="endArrow=none;html=1;rounded=0;" parent="1" edge="1">
          <mxGeometry relative="1" as="geometry">
            <mxPoint x="-108" y="1014" as="sourcePoint" />
            <mxPoint x="-22.5" y="1014" as="targetPoint" />
          </mxGeometry>
        </mxCell>
        <mxCell id="wVbVgi7mBvC_HDMRMZZE-248" value="(1, N)" style="resizable=0;html=1;align=left;verticalAlign=bottom;shadow=0;sketch=0;fillStyle=solid;strokeColor=#330000;strokeWidth=1;fillColor=#FFFFFF;" parent="wVbVgi7mBvC_HDMRMZZE-247" connectable="0" vertex="1">
          <mxGeometry x="-1" relative="1" as="geometry">
            <mxPoint x="47" as="offset" />
          </mxGeometry>
        </mxCell>
        <mxCell id="wVbVgi7mBvC_HDMRMZZE-249" value="name" style="text;html=1;align=center;verticalAlign=middle;resizable=0;points=[];autosize=1;strokeColor=none;fillColor=none;" parent="1" vertex="1">
          <mxGeometry x="-435" y="900" width="50" height="30" as="geometry" />
        </mxCell>
        <mxCell id="wVbVgi7mBvC_HDMRMZZE-250" value="" style="edgeStyle=none;rounded=0;orthogonalLoop=1;jettySize=auto;html=1;exitX=0.75;exitY=0;exitDx=0;exitDy=0;endArrow=none;" parent="1" source="wVbVgi7mBvC_HDMRMZZE-242" target="wVbVgi7mBvC_HDMRMZZE-251" edge="1">
          <mxGeometry relative="1" as="geometry">
            <mxPoint x="-325" y="934" as="targetPoint" />
            <mxPoint x="-330" y="994" as="sourcePoint" />
          </mxGeometry>
        </mxCell>
        <mxCell id="wVbVgi7mBvC_HDMRMZZE-251" value="" style="ellipse;whiteSpace=wrap;html=1;fillColor=#FFFFFF;strokeColor=#330000;shadow=0;sketch=0;fillStyle=solid;strokeWidth=1;" parent="1" vertex="1">
          <mxGeometry x="-335" y="924" width="20" height="20" as="geometry" />
        </mxCell>
        <mxCell id="wVbVgi7mBvC_HDMRMZZE-252" value="" style="ellipse;whiteSpace=wrap;html=1;fillColor=#000000;strokeColor=#330000;shadow=0;sketch=0;fillStyle=solid;strokeWidth=1;" parent="1" vertex="1">
          <mxGeometry x="-395" y="924" width="20" height="20" as="geometry" />
        </mxCell>
        <mxCell id="wVbVgi7mBvC_HDMRMZZE-253" value="city" style="text;html=1;align=center;verticalAlign=middle;resizable=0;points=[];autosize=1;strokeColor=none;fillColor=none;" parent="1" vertex="1">
          <mxGeometry x="-320" y="900" width="40" height="30" as="geometry" />
        </mxCell>
        <mxCell id="wVbVgi7mBvC_HDMRMZZE-261" style="edgeStyle=none;rounded=0;orthogonalLoop=1;jettySize=auto;html=1;exitX=0.75;exitY=0;exitDx=0;exitDy=0;startArrow=none;" parent="1" source="wVbVgi7mBvC_HDMRMZZE-265" edge="1">
          <mxGeometry relative="1" as="geometry">
            <mxPoint x="62.5" y="934" as="targetPoint" />
          </mxGeometry>
        </mxCell>
        <mxCell id="wVbVgi7mBvC_HDMRMZZE-262" style="edgeStyle=none;rounded=0;orthogonalLoop=1;jettySize=auto;html=1;exitX=0.25;exitY=0;exitDx=0;exitDy=0;" parent="1" edge="1">
          <mxGeometry relative="1" as="geometry">
            <mxPoint x="2.5" y="934" as="targetPoint" />
            <mxPoint x="7.5" y="994" as="sourcePoint" />
          </mxGeometry>
        </mxCell>
        <mxCell id="wVbVgi7mBvC_HDMRMZZE-263" value="firstName" style="text;html=1;align=center;verticalAlign=middle;resizable=0;points=[];autosize=1;strokeColor=none;fillColor=none;" parent="1" vertex="1">
          <mxGeometry x="-57.5" y="900" width="70" height="30" as="geometry" />
        </mxCell>
        <mxCell id="wVbVgi7mBvC_HDMRMZZE-264" value="" style="edgeStyle=none;rounded=0;orthogonalLoop=1;jettySize=auto;html=1;exitX=0.75;exitY=0;exitDx=0;exitDy=0;endArrow=none;" parent="1" target="wVbVgi7mBvC_HDMRMZZE-265" edge="1">
          <mxGeometry relative="1" as="geometry">
            <mxPoint x="62.5" y="934" as="targetPoint" />
            <mxPoint x="57.5" y="994" as="sourcePoint" />
          </mxGeometry>
        </mxCell>
        <mxCell id="wVbVgi7mBvC_HDMRMZZE-265" value="" style="ellipse;whiteSpace=wrap;html=1;fillColor=#FFFFFF;strokeColor=#330000;shadow=0;sketch=0;fillStyle=solid;strokeWidth=1;" parent="1" vertex="1">
          <mxGeometry x="52.5" y="924" width="20" height="20" as="geometry" />
        </mxCell>
        <mxCell id="wVbVgi7mBvC_HDMRMZZE-266" value="" style="ellipse;whiteSpace=wrap;html=1;fillColor=#FFFFFF;strokeColor=#330000;shadow=0;sketch=0;fillStyle=solid;strokeWidth=1;" parent="1" vertex="1">
          <mxGeometry x="-7.5" y="924" width="20" height="20" as="geometry" />
        </mxCell>
        <mxCell id="wVbVgi7mBvC_HDMRMZZE-269" value="" style="curved=1;endArrow=classic;html=1;rounded=0;entryX=0.574;entryY=0.321;entryDx=0;entryDy=0;entryPerimeter=0;" parent="1" target="wVbVgi7mBvC_HDMRMZZE-270" edge="1">
          <mxGeometry width="50" height="50" relative="1" as="geometry">
            <mxPoint x="-22.5" y="984" as="sourcePoint" />
            <mxPoint x="107.75" y="964" as="targetPoint" />
            <Array as="points">
              <mxPoint x="-22.25" y="984" />
              <mxPoint x="7.75" y="964" />
            </Array>
          </mxGeometry>
        </mxCell>
        <mxCell id="wVbVgi7mBvC_HDMRMZZE-270" value="" style="shape=waypoint;fillStyle=solid;size=6;pointerEvents=1;points=[];resizable=0;rotatable=0;perimeter=centerPerimeter;snapToPoint=1;strokeWidth=8;fillColor=none;strokeColor=default;perimeterSpacing=0;shadow=0;sketch=0;" parent="1" vertex="1">
          <mxGeometry x="95" y="969.0000000000001" width="20" height="20" as="geometry" />
        </mxCell>
        <mxCell id="wVbVgi7mBvC_HDMRMZZE-271" value="lastName" style="text;html=1;align=center;verticalAlign=middle;resizable=0;points=[];autosize=1;strokeColor=none;fillColor=none;" parent="1" vertex="1">
          <mxGeometry x="62.5" y="902" width="70" height="30" as="geometry" />
        </mxCell>
        <mxCell id="wVbVgi7mBvC_HDMRMZZE-275" value="PUBLISHING" style="shape=rhombus;perimeter=rhombusPerimeter;whiteSpace=wrap;html=1;align=center;shadow=0;sketch=0;fillStyle=solid;strokeColor=#330000;strokeWidth=1;fillColor=#FFFFFF;" parent="1" vertex="1">
          <mxGeometry x="-410" y="1110" width="120" height="60" as="geometry" />
        </mxCell>
        <mxCell id="wVbVgi7mBvC_HDMRMZZE-276" value="" style="endArrow=none;html=1;rounded=0;" parent="1" target="wVbVgi7mBvC_HDMRMZZE-275" edge="1">
          <mxGeometry relative="1" as="geometry">
            <mxPoint x="-350" y="1034" as="sourcePoint" />
            <mxPoint x="-275" y="1034" as="targetPoint" />
          </mxGeometry>
        </mxCell>
        <mxCell id="wVbVgi7mBvC_HDMRMZZE-277" value="(1, N)" style="resizable=0;html=1;align=left;verticalAlign=bottom;shadow=0;sketch=0;fillStyle=solid;strokeColor=#330000;strokeWidth=1;fillColor=#FFFFFF;" parent="wVbVgi7mBvC_HDMRMZZE-276" connectable="0" vertex="1">
          <mxGeometry x="-1" relative="1" as="geometry">
            <mxPoint x="1" y="19" as="offset" />
          </mxGeometry>
        </mxCell>
        <mxCell id="wVbVgi7mBvC_HDMRMZZE-278" value="COMIC BOOK" style="whiteSpace=wrap;html=1;align=center;shadow=0;sketch=0;fillStyle=solid;strokeColor=#330000;strokeWidth=1;fillColor=#FFFFFF;" parent="1" vertex="1">
          <mxGeometry x="-205.5" y="1120" width="100" height="40" as="geometry" />
        </mxCell>
        <mxCell id="wVbVgi7mBvC_HDMRMZZE-279" value="" style="endArrow=none;html=1;rounded=0;" parent="1" edge="1">
          <mxGeometry relative="1" as="geometry">
            <mxPoint x="-291" y="1140" as="sourcePoint" />
            <mxPoint x="-205.5" y="1140" as="targetPoint" />
          </mxGeometry>
        </mxCell>
        <mxCell id="wVbVgi7mBvC_HDMRMZZE-280" value="(1, 1)" style="resizable=0;html=1;align=left;verticalAlign=bottom;shadow=0;sketch=0;fillStyle=solid;strokeColor=#330000;strokeWidth=1;fillColor=#FFFFFF;" parent="wVbVgi7mBvC_HDMRMZZE-279" connectable="0" vertex="1">
          <mxGeometry x="-1" relative="1" as="geometry">
            <mxPoint x="48" as="offset" />
          </mxGeometry>
        </mxCell>
        <mxCell id="wVbVgi7mBvC_HDMRMZZE-292" value="" style="endArrow=none;html=1;rounded=0;" parent="1" edge="1">
          <mxGeometry width="50" height="50" relative="1" as="geometry">
            <mxPoint x="-148" y="1161" as="sourcePoint" />
            <mxPoint x="-140" y="1210" as="targetPoint" />
          </mxGeometry>
        </mxCell>
        <mxCell id="wVbVgi7mBvC_HDMRMZZE-293" value="" style="ellipse;whiteSpace=wrap;html=1;aspect=fixed;shadow=0;sketch=0;fillStyle=solid;strokeColor=#330000;strokeWidth=1;fillColor=#FFFFFF;" parent="1" vertex="1">
          <mxGeometry x="-149.5" y="1210" width="20" height="20" as="geometry" />
        </mxCell>
        <mxCell id="wVbVgi7mBvC_HDMRMZZE-294" value="series" style="text;html=1;align=center;verticalAlign=middle;resizable=0;points=[];autosize=1;strokeColor=none;fillColor=none;" parent="1" vertex="1">
          <mxGeometry x="-143.5" y="1216" width="60" height="30" as="geometry" />
        </mxCell>
        <mxCell id="wVbVgi7mBvC_HDMRMZZE-295" value="" style="endArrow=none;html=1;rounded=0;startArrow=none;" parent="1" source="HoVi9p8Lm3jnbSQNBDDz-8" edge="1">
          <mxGeometry width="50" height="50" relative="1" as="geometry">
            <mxPoint x="-198" y="1161" as="sourcePoint" />
            <mxPoint x="-222" y="1210" as="targetPoint" />
          </mxGeometry>
        </mxCell>
        <mxCell id="wVbVgi7mBvC_HDMRMZZE-296" value="" style="ellipse;whiteSpace=wrap;html=1;aspect=fixed;shadow=0;sketch=0;fillStyle=solid;strokeColor=#330000;strokeWidth=1;fillColor=#FFFFFF;flipV=0;flipH=1;perimeterSpacing=0;" parent="1" vertex="1">
          <mxGeometry x="-236" y="1210" width="20" height="20" as="geometry" />
        </mxCell>
        <mxCell id="wVbVgi7mBvC_HDMRMZZE-297" value="number" style="text;html=1;align=center;verticalAlign=middle;resizable=0;points=[];autosize=1;strokeColor=none;fillColor=none;flipV=0;flipH=1;" parent="1" vertex="1">
          <mxGeometry x="-290.5" y="1216" width="60" height="30" as="geometry" />
        </mxCell>
        <mxCell id="wVbVgi7mBvC_HDMRMZZE-299" value="ARTIST" style="whiteSpace=wrap;html=1;align=center;shadow=0;sketch=0;fillStyle=solid;strokeColor=#330000;strokeWidth=1;fillColor=#FFFFFF;" parent="1" vertex="1">
          <mxGeometry x="176.75" y="1120" width="100" height="40" as="geometry" />
        </mxCell>
        <mxCell id="wVbVgi7mBvC_HDMRMZZE-300" value="AUTHORING" style="shape=rhombus;perimeter=rhombusPerimeter;whiteSpace=wrap;html=1;align=center;shadow=0;sketch=0;fillStyle=solid;strokeColor=#330000;strokeWidth=1;fillColor=#FFFFFF;" parent="1" vertex="1">
          <mxGeometry x="-28.25" y="1110" width="120" height="60" as="geometry" />
        </mxCell>
        <mxCell id="wVbVgi7mBvC_HDMRMZZE-301" value="" style="endArrow=none;html=1;rounded=0;" parent="1" edge="1">
          <mxGeometry relative="1" as="geometry">
            <mxPoint x="-105.75" y="1140" as="sourcePoint" />
            <mxPoint x="-25.75" y="1140" as="targetPoint" />
          </mxGeometry>
        </mxCell>
        <mxCell id="wVbVgi7mBvC_HDMRMZZE-302" value="(1, N)" style="resizable=0;html=1;align=left;verticalAlign=bottom;shadow=0;sketch=0;fillStyle=solid;strokeColor=#330000;strokeWidth=1;fillColor=#FFFFFF;" parent="wVbVgi7mBvC_HDMRMZZE-301" connectable="0" vertex="1">
          <mxGeometry x="-1" relative="1" as="geometry">
            <mxPoint x="5" as="offset" />
          </mxGeometry>
        </mxCell>
        <mxCell id="wVbVgi7mBvC_HDMRMZZE-303" value="" style="endArrow=none;html=1;rounded=0;" parent="1" edge="1">
          <mxGeometry relative="1" as="geometry">
            <mxPoint x="91.25" y="1140" as="sourcePoint" />
            <mxPoint x="176.75" y="1140" as="targetPoint" />
          </mxGeometry>
        </mxCell>
        <mxCell id="wVbVgi7mBvC_HDMRMZZE-304" value="(1, N)" style="resizable=0;html=1;align=left;verticalAlign=bottom;shadow=0;sketch=0;fillStyle=solid;strokeColor=#330000;strokeWidth=1;fillColor=#FFFFFF;" parent="wVbVgi7mBvC_HDMRMZZE-303" connectable="0" vertex="1">
          <mxGeometry x="-1" relative="1" as="geometry">
            <mxPoint x="47" as="offset" />
          </mxGeometry>
        </mxCell>
        <mxCell id="wVbVgi7mBvC_HDMRMZZE-309" style="edgeStyle=none;rounded=0;orthogonalLoop=1;jettySize=auto;html=1;exitX=0.75;exitY=0;exitDx=0;exitDy=0;startArrow=none;" parent="1" source="wVbVgi7mBvC_HDMRMZZE-313" edge="1">
          <mxGeometry relative="1" as="geometry">
            <mxPoint x="261.75" y="1060" as="targetPoint" />
          </mxGeometry>
        </mxCell>
        <mxCell id="wVbVgi7mBvC_HDMRMZZE-310" style="edgeStyle=none;rounded=0;orthogonalLoop=1;jettySize=auto;html=1;exitX=0.25;exitY=0;exitDx=0;exitDy=0;" parent="1" edge="1">
          <mxGeometry relative="1" as="geometry">
            <mxPoint x="201.75" y="1060" as="targetPoint" />
            <mxPoint x="206.75" y="1120" as="sourcePoint" />
          </mxGeometry>
        </mxCell>
        <mxCell id="wVbVgi7mBvC_HDMRMZZE-311" value="firstName" style="text;html=1;align=center;verticalAlign=middle;resizable=0;points=[];autosize=1;strokeColor=none;fillColor=none;" parent="1" vertex="1">
          <mxGeometry x="144.75" y="1026" width="70" height="30" as="geometry" />
        </mxCell>
        <mxCell id="wVbVgi7mBvC_HDMRMZZE-312" value="" style="edgeStyle=none;rounded=0;orthogonalLoop=1;jettySize=auto;html=1;exitX=0.75;exitY=0;exitDx=0;exitDy=0;endArrow=none;" parent="1" target="wVbVgi7mBvC_HDMRMZZE-313" edge="1">
          <mxGeometry relative="1" as="geometry">
            <mxPoint x="261.75" y="1060" as="targetPoint" />
            <mxPoint x="256.75" y="1120" as="sourcePoint" />
          </mxGeometry>
        </mxCell>
        <mxCell id="wVbVgi7mBvC_HDMRMZZE-313" value="" style="ellipse;whiteSpace=wrap;html=1;fillColor=#FFFFFF;strokeColor=#330000;shadow=0;sketch=0;fillStyle=solid;strokeWidth=1;" parent="1" vertex="1">
          <mxGeometry x="251.75" y="1050" width="20" height="20" as="geometry" />
        </mxCell>
        <mxCell id="wVbVgi7mBvC_HDMRMZZE-314" value="" style="ellipse;whiteSpace=wrap;html=1;fillColor=#FFFFFF;strokeColor=#330000;shadow=0;sketch=0;fillStyle=solid;strokeWidth=1;" parent="1" vertex="1">
          <mxGeometry x="191.75" y="1050" width="20" height="20" as="geometry" />
        </mxCell>
        <mxCell id="wVbVgi7mBvC_HDMRMZZE-315" value="" style="shape=waypoint;fillStyle=solid;size=6;pointerEvents=1;points=[];resizable=0;rotatable=0;perimeter=centerPerimeter;snapToPoint=1;strokeWidth=3;fillColor=none;strokeColor=default;perimeterSpacing=0;shadow=0;sketch=0;flipV=0;flipH=0;" parent="1" vertex="1">
          <mxGeometry x="194.75" y="1090" width="20" height="20" as="geometry" />
        </mxCell>
        <mxCell id="wVbVgi7mBvC_HDMRMZZE-316" value="" style="shape=waypoint;fillStyle=solid;size=6;pointerEvents=1;points=[];resizable=0;rotatable=0;perimeter=centerPerimeter;snapToPoint=1;strokeWidth=3;fillColor=none;strokeColor=default;perimeterSpacing=0;shadow=0;sketch=0;flipV=0;flipH=0;" parent="1" vertex="1">
          <mxGeometry x="248.75" y="1090" width="20" height="20" as="geometry" />
        </mxCell>
        <mxCell id="wVbVgi7mBvC_HDMRMZZE-317" value="" style="curved=1;endArrow=classic;html=1;rounded=0;entryX=0.574;entryY=0.321;entryDx=0;entryDy=0;entryPerimeter=0;" parent="1" target="wVbVgi7mBvC_HDMRMZZE-318" edge="1">
          <mxGeometry width="50" height="50" relative="1" as="geometry">
            <mxPoint x="176.75" y="1110" as="sourcePoint" />
            <mxPoint x="307" y="1090" as="targetPoint" />
            <Array as="points">
              <mxPoint x="177" y="1110" />
              <mxPoint x="207" y="1090" />
            </Array>
          </mxGeometry>
        </mxCell>
        <mxCell id="wVbVgi7mBvC_HDMRMZZE-318" value="" style="shape=waypoint;fillStyle=solid;size=6;pointerEvents=1;points=[];resizable=0;rotatable=0;perimeter=centerPerimeter;snapToPoint=1;strokeWidth=8;fillColor=none;strokeColor=default;perimeterSpacing=0;shadow=0;sketch=0;" parent="1" vertex="1">
          <mxGeometry x="294.25" y="1095" width="20" height="20" as="geometry" />
        </mxCell>
        <mxCell id="wVbVgi7mBvC_HDMRMZZE-319" value="lastName" style="text;html=1;align=center;verticalAlign=middle;resizable=0;points=[];autosize=1;strokeColor=none;fillColor=none;" parent="1" vertex="1">
          <mxGeometry x="264.75" y="1028" width="70" height="30" as="geometry" />
        </mxCell>
        <mxCell id="wVbVgi7mBvC_HDMRMZZE-320" value="" style="endArrow=none;html=1;rounded=0;" parent="1" edge="1">
          <mxGeometry width="50" height="50" relative="1" as="geometry">
            <mxPoint x="240.25" y="1161" as="sourcePoint" />
            <mxPoint x="264.25" y="1210" as="targetPoint" />
          </mxGeometry>
        </mxCell>
        <mxCell id="wVbVgi7mBvC_HDMRMZZE-321" value="" style="ellipse;whiteSpace=wrap;html=1;aspect=fixed;shadow=0;sketch=0;fillStyle=solid;strokeColor=#330000;strokeWidth=1;fillColor=#FFFFFF;" parent="1" vertex="1">
          <mxGeometry x="255.75" y="1210" width="20" height="20" as="geometry" />
        </mxCell>
        <mxCell id="wVbVgi7mBvC_HDMRMZZE-322" value="" style="endArrow=none;html=1;rounded=0;" parent="1" edge="1">
          <mxGeometry relative="1" as="geometry">
            <mxPoint x="31.160000000000025" y="1034" as="sourcePoint" />
            <mxPoint x="31.160000000000025" y="1110" as="targetPoint" />
          </mxGeometry>
        </mxCell>
        <mxCell id="wVbVgi7mBvC_HDMRMZZE-323" value="(1, N)" style="resizable=0;html=1;align=left;verticalAlign=bottom;shadow=0;sketch=0;fillStyle=solid;strokeColor=#330000;strokeWidth=1;fillColor=#FFFFFF;" parent="wVbVgi7mBvC_HDMRMZZE-322" connectable="0" vertex="1">
          <mxGeometry x="-1" relative="1" as="geometry">
            <mxPoint x="1" y="19" as="offset" />
          </mxGeometry>
        </mxCell>
        <mxCell id="wVbVgi7mBvC_HDMRMZZE-324" value="" style="endArrow=none;html=1;rounded=0;startSize=6;jumpSize=6;jumpStyle=none;" parent="1" edge="1">
          <mxGeometry relative="1" as="geometry">
            <mxPoint x="277" y="1139.41" as="sourcePoint" />
            <mxPoint x="-167" y="984" as="targetPoint" />
            <Array as="points">
              <mxPoint x="443" y="1139" />
              <mxPoint x="443" y="860" />
              <mxPoint x="-167" y="860" />
              <mxPoint x="-167" y="980" />
            </Array>
          </mxGeometry>
        </mxCell>
        <mxCell id="wVbVgi7mBvC_HDMRMZZE-325" value="(1, N)" style="resizable=0;html=1;align=left;verticalAlign=bottom;shadow=0;sketch=0;fillStyle=solid;strokeColor=#330000;strokeWidth=1;fillColor=#FFFFFF;" parent="wVbVgi7mBvC_HDMRMZZE-324" connectable="0" vertex="1">
          <mxGeometry x="-1" relative="1" as="geometry">
            <mxPoint x="5" as="offset" />
          </mxGeometry>
        </mxCell>
        <mxCell id="wVbVgi7mBvC_HDMRMZZE-329" value="pseudonym" style="text;html=1;align=center;verticalAlign=middle;resizable=0;points=[];autosize=1;strokeColor=none;fillColor=none;" parent="1" vertex="1">
          <mxGeometry x="262.75" y="1213" width="90" height="30" as="geometry" />
        </mxCell>
        <mxCell id="wVbVgi7mBvC_HDMRMZZE-330" value="" style="endArrow=none;html=1;rounded=0;" parent="1" edge="1">
          <mxGeometry width="50" height="50" relative="1" as="geometry">
            <mxPoint x="-2.5" y="1083" as="sourcePoint" />
            <mxPoint x="21.5" y="1034" as="targetPoint" />
          </mxGeometry>
        </mxCell>
        <mxCell id="wVbVgi7mBvC_HDMRMZZE-331" value="" style="ellipse;whiteSpace=wrap;html=1;aspect=fixed;shadow=0;sketch=0;fillStyle=solid;strokeColor=#330000;strokeWidth=1;fillColor=#FFFFFF;flipV=1;" parent="1" vertex="1">
          <mxGeometry x="-17" y="1083" width="20" height="20" as="geometry" />
        </mxCell>
        <mxCell id="wVbVgi7mBvC_HDMRMZZE-332" value="pseudonym" style="text;html=1;align=center;verticalAlign=middle;resizable=0;points=[];autosize=1;strokeColor=none;fillColor=none;flipV=1;" parent="1" vertex="1">
          <mxGeometry x="-96.5" y="1080" width="90" height="30" as="geometry" />
        </mxCell>
        <mxCell id="wVbVgi7mBvC_HDMRMZZE-338" style="edgeStyle=none;rounded=0;orthogonalLoop=1;jettySize=auto;html=1;" parent="1" edge="1">
          <mxGeometry relative="1" as="geometry">
            <mxPoint x="-212" y="950" as="targetPoint" />
            <mxPoint x="-296" y="870" as="sourcePoint" />
          </mxGeometry>
        </mxCell>
        <mxCell id="wVbVgi7mBvC_HDMRMZZE-339" value="The entity EDITOR is introduced: it publishes the comic book &lt;br&gt;and hires the authors who create the comic book" style="text;html=1;align=center;verticalAlign=middle;resizable=0;points=[];autosize=1;strokeColor=none;fillColor=none;" parent="1" vertex="1">
          <mxGeometry x="-605" y="840" width="350" height="40" as="geometry" />
        </mxCell>
        <mxCell id="wVbVgi7mBvC_HDMRMZZE-340" style="edgeStyle=none;rounded=0;orthogonalLoop=1;jettySize=auto;html=1;exitX=0.75;exitY=0;exitDx=0;exitDy=0;startArrow=none;" parent="1" source="wVbVgi7mBvC_HDMRMZZE-351" edge="1">
          <mxGeometry relative="1" as="geometry">
            <mxPoint x="-315.5" y="1454" as="targetPoint" />
          </mxGeometry>
        </mxCell>
        <mxCell id="wVbVgi7mBvC_HDMRMZZE-341" style="edgeStyle=none;rounded=0;orthogonalLoop=1;jettySize=auto;html=1;exitX=0.25;exitY=0;exitDx=0;exitDy=0;" parent="1" source="wVbVgi7mBvC_HDMRMZZE-342" edge="1">
          <mxGeometry relative="1" as="geometry">
            <mxPoint x="-375.5" y="1454" as="targetPoint" />
          </mxGeometry>
        </mxCell>
        <mxCell id="wVbVgi7mBvC_HDMRMZZE-342" value="EDITOR" style="whiteSpace=wrap;html=1;align=center;shadow=0;sketch=0;fillStyle=solid;strokeColor=#330000;strokeWidth=1;fillColor=#FFFFFF;" parent="1" vertex="1">
          <mxGeometry x="-395.5" y="1514" width="100" height="40" as="geometry" />
        </mxCell>
        <mxCell id="wVbVgi7mBvC_HDMRMZZE-343" value="WRITER" style="whiteSpace=wrap;html=1;align=center;shadow=0;sketch=0;fillStyle=solid;strokeColor=#330000;strokeWidth=1;fillColor=#FFFFFF;" parent="1" vertex="1">
          <mxGeometry x="-13" y="1514" width="100" height="40" as="geometry" />
        </mxCell>
        <mxCell id="wVbVgi7mBvC_HDMRMZZE-349" value="name" style="text;html=1;align=center;verticalAlign=middle;resizable=0;points=[];autosize=1;strokeColor=none;fillColor=none;" parent="1" vertex="1">
          <mxGeometry x="-425.5" y="1420" width="50" height="30" as="geometry" />
        </mxCell>
        <mxCell id="wVbVgi7mBvC_HDMRMZZE-350" value="" style="edgeStyle=none;rounded=0;orthogonalLoop=1;jettySize=auto;html=1;exitX=0.75;exitY=0;exitDx=0;exitDy=0;endArrow=none;" parent="1" source="wVbVgi7mBvC_HDMRMZZE-342" target="wVbVgi7mBvC_HDMRMZZE-351" edge="1">
          <mxGeometry relative="1" as="geometry">
            <mxPoint x="-315.5" y="1454" as="targetPoint" />
            <mxPoint x="-320.5" y="1514" as="sourcePoint" />
          </mxGeometry>
        </mxCell>
        <mxCell id="wVbVgi7mBvC_HDMRMZZE-351" value="" style="ellipse;whiteSpace=wrap;html=1;fillColor=#FFFFFF;strokeColor=#330000;shadow=0;sketch=0;fillStyle=solid;strokeWidth=1;" parent="1" vertex="1">
          <mxGeometry x="-325.5" y="1444" width="20" height="20" as="geometry" />
        </mxCell>
        <mxCell id="wVbVgi7mBvC_HDMRMZZE-352" value="" style="ellipse;whiteSpace=wrap;html=1;fillColor=#000000;strokeColor=#330000;shadow=0;sketch=0;fillStyle=solid;strokeWidth=1;" parent="1" vertex="1">
          <mxGeometry x="-385.5" y="1444" width="20" height="20" as="geometry" />
        </mxCell>
        <mxCell id="wVbVgi7mBvC_HDMRMZZE-353" value="city" style="text;html=1;align=center;verticalAlign=middle;resizable=0;points=[];autosize=1;strokeColor=none;fillColor=none;" parent="1" vertex="1">
          <mxGeometry x="-310.5" y="1420" width="40" height="30" as="geometry" />
        </mxCell>
        <mxCell id="wVbVgi7mBvC_HDMRMZZE-358" style="edgeStyle=none;rounded=0;orthogonalLoop=1;jettySize=auto;html=1;exitX=0.75;exitY=0;exitDx=0;exitDy=0;startArrow=none;" parent="1" source="wVbVgi7mBvC_HDMRMZZE-362" edge="1">
          <mxGeometry relative="1" as="geometry">
            <mxPoint x="72" y="1454" as="targetPoint" />
          </mxGeometry>
        </mxCell>
        <mxCell id="wVbVgi7mBvC_HDMRMZZE-359" style="edgeStyle=none;rounded=0;orthogonalLoop=1;jettySize=auto;html=1;exitX=0.25;exitY=0;exitDx=0;exitDy=0;" parent="1" edge="1">
          <mxGeometry relative="1" as="geometry">
            <mxPoint x="12" y="1454" as="targetPoint" />
            <mxPoint x="17" y="1514" as="sourcePoint" />
          </mxGeometry>
        </mxCell>
        <mxCell id="wVbVgi7mBvC_HDMRMZZE-360" value="firstName" style="text;html=1;align=center;verticalAlign=middle;resizable=0;points=[];autosize=1;strokeColor=none;fillColor=none;" parent="1" vertex="1">
          <mxGeometry x="-48" y="1420" width="70" height="30" as="geometry" />
        </mxCell>
        <mxCell id="wVbVgi7mBvC_HDMRMZZE-361" value="" style="edgeStyle=none;rounded=0;orthogonalLoop=1;jettySize=auto;html=1;exitX=0.75;exitY=0;exitDx=0;exitDy=0;endArrow=none;" parent="1" target="wVbVgi7mBvC_HDMRMZZE-362" edge="1">
          <mxGeometry relative="1" as="geometry">
            <mxPoint x="72" y="1454" as="targetPoint" />
            <mxPoint x="67" y="1514" as="sourcePoint" />
          </mxGeometry>
        </mxCell>
        <mxCell id="wVbVgi7mBvC_HDMRMZZE-362" value="" style="ellipse;whiteSpace=wrap;html=1;fillColor=#FFFFFF;strokeColor=#330000;shadow=0;sketch=0;fillStyle=solid;strokeWidth=1;" parent="1" vertex="1">
          <mxGeometry x="62" y="1444" width="20" height="20" as="geometry" />
        </mxCell>
        <mxCell id="wVbVgi7mBvC_HDMRMZZE-363" value="" style="ellipse;whiteSpace=wrap;html=1;fillColor=#FFFFFF;strokeColor=#330000;shadow=0;sketch=0;fillStyle=solid;strokeWidth=1;" parent="1" vertex="1">
          <mxGeometry x="2" y="1444" width="20" height="20" as="geometry" />
        </mxCell>
        <mxCell id="wVbVgi7mBvC_HDMRMZZE-364" value="" style="shape=waypoint;fillStyle=solid;size=6;pointerEvents=1;points=[];resizable=0;rotatable=0;perimeter=centerPerimeter;snapToPoint=1;strokeWidth=3;fillColor=none;strokeColor=default;perimeterSpacing=0;shadow=0;sketch=0;flipV=0;flipH=0;" parent="1" vertex="1">
          <mxGeometry x="5" y="1484" width="20" height="20" as="geometry" />
        </mxCell>
        <mxCell id="wVbVgi7mBvC_HDMRMZZE-365" value="" style="shape=waypoint;fillStyle=solid;size=6;pointerEvents=1;points=[];resizable=0;rotatable=0;perimeter=centerPerimeter;snapToPoint=1;strokeWidth=3;fillColor=none;strokeColor=default;perimeterSpacing=0;shadow=0;sketch=0;flipV=0;flipH=0;" parent="1" vertex="1">
          <mxGeometry x="59" y="1484" width="20" height="20" as="geometry" />
        </mxCell>
        <mxCell id="wVbVgi7mBvC_HDMRMZZE-366" value="" style="curved=1;endArrow=classic;html=1;rounded=0;entryX=0.574;entryY=0.321;entryDx=0;entryDy=0;entryPerimeter=0;exitX=0.574;exitY=0.321;exitDx=0;exitDy=0;exitPerimeter=0;" parent="1" edge="1">
          <mxGeometry width="50" height="50" relative="1" as="geometry">
            <mxPoint x="104.5" y="1499" as="sourcePoint" />
            <mxPoint x="-23" y="1504" as="targetPoint" />
            <Array as="points">
              <mxPoint x="7.25" y="1484" />
              <mxPoint x="-22.75" y="1504" />
            </Array>
          </mxGeometry>
        </mxCell>
        <mxCell id="wVbVgi7mBvC_HDMRMZZE-367" value="" style="shape=waypoint;fillStyle=solid;size=6;pointerEvents=1;points=[];resizable=0;rotatable=0;perimeter=centerPerimeter;snapToPoint=1;strokeWidth=8;fillColor=none;strokeColor=default;perimeterSpacing=0;shadow=0;sketch=0;" parent="1" vertex="1">
          <mxGeometry x="-28.5" y="1491" width="20" height="20" as="geometry" />
        </mxCell>
        <mxCell id="wVbVgi7mBvC_HDMRMZZE-368" value="lastName" style="text;html=1;align=center;verticalAlign=middle;resizable=0;points=[];autosize=1;strokeColor=none;fillColor=none;" parent="1" vertex="1">
          <mxGeometry x="72" y="1422" width="70" height="30" as="geometry" />
        </mxCell>
        <mxCell id="wVbVgi7mBvC_HDMRMZZE-369" value="PUBLISHING" style="shape=rhombus;perimeter=rhombusPerimeter;whiteSpace=wrap;html=1;align=center;shadow=0;sketch=0;fillStyle=solid;strokeColor=#330000;strokeWidth=1;fillColor=#FFFFFF;" parent="1" vertex="1">
          <mxGeometry x="-400.5" y="1630" width="120" height="60" as="geometry" />
        </mxCell>
        <mxCell id="wVbVgi7mBvC_HDMRMZZE-370" value="" style="endArrow=none;html=1;rounded=0;" parent="1" target="wVbVgi7mBvC_HDMRMZZE-369" edge="1">
          <mxGeometry relative="1" as="geometry">
            <mxPoint x="-340.5" y="1554" as="sourcePoint" />
            <mxPoint x="-265.5" y="1554" as="targetPoint" />
          </mxGeometry>
        </mxCell>
        <mxCell id="wVbVgi7mBvC_HDMRMZZE-371" value="(1, N)" style="resizable=0;html=1;align=left;verticalAlign=bottom;shadow=0;sketch=0;fillStyle=solid;strokeColor=#330000;strokeWidth=1;fillColor=#FFFFFF;" parent="wVbVgi7mBvC_HDMRMZZE-370" connectable="0" vertex="1">
          <mxGeometry x="-1" relative="1" as="geometry">
            <mxPoint x="1" y="19" as="offset" />
          </mxGeometry>
        </mxCell>
        <mxCell id="wVbVgi7mBvC_HDMRMZZE-372" value="COMIC BOOK" style="whiteSpace=wrap;html=1;align=center;shadow=0;sketch=0;fillStyle=solid;strokeColor=#330000;strokeWidth=1;fillColor=#FFFFFF;" parent="1" vertex="1">
          <mxGeometry x="-196" y="1640" width="100" height="40" as="geometry" />
        </mxCell>
        <mxCell id="wVbVgi7mBvC_HDMRMZZE-373" value="" style="endArrow=none;html=1;rounded=0;" parent="1" edge="1">
          <mxGeometry relative="1" as="geometry">
            <mxPoint x="-281.5" y="1660" as="sourcePoint" />
            <mxPoint x="-196" y="1660" as="targetPoint" />
          </mxGeometry>
        </mxCell>
        <mxCell id="wVbVgi7mBvC_HDMRMZZE-374" value="(1, 1)" style="resizable=0;html=1;align=left;verticalAlign=bottom;shadow=0;sketch=0;fillStyle=solid;strokeColor=#330000;strokeWidth=1;fillColor=#FFFFFF;" parent="wVbVgi7mBvC_HDMRMZZE-373" connectable="0" vertex="1">
          <mxGeometry x="-1" relative="1" as="geometry">
            <mxPoint x="48" as="offset" />
          </mxGeometry>
        </mxCell>
        <mxCell id="wVbVgi7mBvC_HDMRMZZE-375" value="" style="endArrow=none;html=1;rounded=0;" parent="1" edge="1">
          <mxGeometry width="50" height="50" relative="1" as="geometry">
            <mxPoint x="-78.50000000000045" y="1591" as="sourcePoint" />
            <mxPoint x="-102.50000000000045" y="1640" as="targetPoint" />
          </mxGeometry>
        </mxCell>
        <mxCell id="wVbVgi7mBvC_HDMRMZZE-376" value="" style="ellipse;whiteSpace=wrap;html=1;aspect=fixed;shadow=0;sketch=0;fillStyle=solid;strokeColor=#330000;strokeWidth=1;fillColor=#FFFFFF;" parent="1" vertex="1">
          <mxGeometry x="-87" y="1570" width="20" height="20" as="geometry" />
        </mxCell>
        <mxCell id="wVbVgi7mBvC_HDMRMZZE-377" value="coverTitle" style="text;html=1;align=center;verticalAlign=middle;resizable=0;points=[];autosize=1;strokeColor=none;fillColor=none;" parent="1" vertex="1">
          <mxGeometry x="-98" y="1547" width="80" height="30" as="geometry" />
        </mxCell>
        <mxCell id="wVbVgi7mBvC_HDMRMZZE-378" value="" style="endArrow=none;html=1;rounded=0;" parent="1" edge="1">
          <mxGeometry width="50" height="50" relative="1" as="geometry">
            <mxPoint x="-219.50000000000045" y="1591" as="sourcePoint" />
            <mxPoint x="-195.50000000000045" y="1640" as="targetPoint" />
          </mxGeometry>
        </mxCell>
        <mxCell id="wVbVgi7mBvC_HDMRMZZE-379" value="" style="ellipse;whiteSpace=wrap;html=1;aspect=fixed;shadow=0;sketch=0;fillStyle=solid;strokeColor=#330000;strokeWidth=1;fillColor=#FFFFFF;flipV=0;flipH=1;perimeterSpacing=0;" parent="1" vertex="1">
          <mxGeometry x="-231.5" y="1572" width="20" height="20" as="geometry" />
        </mxCell>
        <mxCell id="wVbVgi7mBvC_HDMRMZZE-380" value="number" style="text;html=1;align=center;verticalAlign=middle;resizable=0;points=[];autosize=1;strokeColor=none;fillColor=none;flipV=0;flipH=1;" parent="1" vertex="1">
          <mxGeometry x="-277" y="1552" width="60" height="30" as="geometry" />
        </mxCell>
        <mxCell id="wVbVgi7mBvC_HDMRMZZE-381" value="ARTIST" style="whiteSpace=wrap;html=1;align=center;shadow=0;sketch=0;fillStyle=solid;strokeColor=#330000;strokeWidth=1;fillColor=#FFFFFF;" parent="1" vertex="1">
          <mxGeometry x="186.25" y="1640" width="100" height="40" as="geometry" />
        </mxCell>
        <mxCell id="wVbVgi7mBvC_HDMRMZZE-382" value="AUTHORING" style="shape=rhombus;perimeter=rhombusPerimeter;whiteSpace=wrap;html=1;align=center;shadow=0;sketch=0;fillStyle=solid;strokeColor=#330000;strokeWidth=1;fillColor=#FFFFFF;" parent="1" vertex="1">
          <mxGeometry x="-18.75" y="1630" width="120" height="60" as="geometry" />
        </mxCell>
        <mxCell id="wVbVgi7mBvC_HDMRMZZE-383" value="" style="endArrow=none;html=1;rounded=0;" parent="1" edge="1">
          <mxGeometry relative="1" as="geometry">
            <mxPoint x="-96.25" y="1660" as="sourcePoint" />
            <mxPoint x="-16.25" y="1660" as="targetPoint" />
          </mxGeometry>
        </mxCell>
        <mxCell id="wVbVgi7mBvC_HDMRMZZE-384" value="(1, N)" style="resizable=0;html=1;align=left;verticalAlign=bottom;shadow=0;sketch=0;fillStyle=solid;strokeColor=#330000;strokeWidth=1;fillColor=#FFFFFF;" parent="wVbVgi7mBvC_HDMRMZZE-383" connectable="0" vertex="1">
          <mxGeometry x="-1" relative="1" as="geometry">
            <mxPoint x="5" as="offset" />
          </mxGeometry>
        </mxCell>
        <mxCell id="wVbVgi7mBvC_HDMRMZZE-385" value="" style="endArrow=none;html=1;rounded=0;" parent="1" edge="1">
          <mxGeometry relative="1" as="geometry">
            <mxPoint x="100.75" y="1660" as="sourcePoint" />
            <mxPoint x="186.25" y="1660" as="targetPoint" />
          </mxGeometry>
        </mxCell>
        <mxCell id="wVbVgi7mBvC_HDMRMZZE-386" value="(1, N)" style="resizable=0;html=1;align=left;verticalAlign=bottom;shadow=0;sketch=0;fillStyle=solid;strokeColor=#330000;strokeWidth=1;fillColor=#FFFFFF;" parent="wVbVgi7mBvC_HDMRMZZE-385" connectable="0" vertex="1">
          <mxGeometry x="-1" relative="1" as="geometry">
            <mxPoint x="47" as="offset" />
          </mxGeometry>
        </mxCell>
        <mxCell id="wVbVgi7mBvC_HDMRMZZE-387" style="edgeStyle=none;rounded=0;orthogonalLoop=1;jettySize=auto;html=1;exitX=0.75;exitY=0;exitDx=0;exitDy=0;startArrow=none;" parent="1" source="wVbVgi7mBvC_HDMRMZZE-391" edge="1">
          <mxGeometry relative="1" as="geometry">
            <mxPoint x="271.25" y="1580" as="targetPoint" />
          </mxGeometry>
        </mxCell>
        <mxCell id="wVbVgi7mBvC_HDMRMZZE-388" style="edgeStyle=none;rounded=0;orthogonalLoop=1;jettySize=auto;html=1;exitX=0.25;exitY=0;exitDx=0;exitDy=0;" parent="1" edge="1">
          <mxGeometry relative="1" as="geometry">
            <mxPoint x="211.25" y="1580" as="targetPoint" />
            <mxPoint x="216.25" y="1640" as="sourcePoint" />
          </mxGeometry>
        </mxCell>
        <mxCell id="wVbVgi7mBvC_HDMRMZZE-389" value="firstName" style="text;html=1;align=center;verticalAlign=middle;resizable=0;points=[];autosize=1;strokeColor=none;fillColor=none;" parent="1" vertex="1">
          <mxGeometry x="154.25" y="1546" width="70" height="30" as="geometry" />
        </mxCell>
        <mxCell id="wVbVgi7mBvC_HDMRMZZE-390" value="" style="edgeStyle=none;rounded=0;orthogonalLoop=1;jettySize=auto;html=1;exitX=0.75;exitY=0;exitDx=0;exitDy=0;endArrow=none;" parent="1" target="wVbVgi7mBvC_HDMRMZZE-391" edge="1">
          <mxGeometry relative="1" as="geometry">
            <mxPoint x="271.25" y="1580" as="targetPoint" />
            <mxPoint x="266.25" y="1640" as="sourcePoint" />
          </mxGeometry>
        </mxCell>
        <mxCell id="wVbVgi7mBvC_HDMRMZZE-391" value="" style="ellipse;whiteSpace=wrap;html=1;fillColor=#FFFFFF;strokeColor=#330000;shadow=0;sketch=0;fillStyle=solid;strokeWidth=1;" parent="1" vertex="1">
          <mxGeometry x="261.25" y="1570" width="20" height="20" as="geometry" />
        </mxCell>
        <mxCell id="wVbVgi7mBvC_HDMRMZZE-392" value="" style="ellipse;whiteSpace=wrap;html=1;fillColor=#FFFFFF;strokeColor=#330000;shadow=0;sketch=0;fillStyle=solid;strokeWidth=1;" parent="1" vertex="1">
          <mxGeometry x="201.25" y="1570" width="20" height="20" as="geometry" />
        </mxCell>
        <mxCell id="wVbVgi7mBvC_HDMRMZZE-393" value="" style="shape=waypoint;fillStyle=solid;size=6;pointerEvents=1;points=[];resizable=0;rotatable=0;perimeter=centerPerimeter;snapToPoint=1;strokeWidth=3;fillColor=none;strokeColor=default;perimeterSpacing=0;shadow=0;sketch=0;flipV=0;flipH=0;" parent="1" vertex="1">
          <mxGeometry x="204.25" y="1610" width="20" height="20" as="geometry" />
        </mxCell>
        <mxCell id="wVbVgi7mBvC_HDMRMZZE-394" value="" style="shape=waypoint;fillStyle=solid;size=6;pointerEvents=1;points=[];resizable=0;rotatable=0;perimeter=centerPerimeter;snapToPoint=1;strokeWidth=3;fillColor=none;strokeColor=default;perimeterSpacing=0;shadow=0;sketch=0;flipV=0;flipH=0;" parent="1" vertex="1">
          <mxGeometry x="258.25" y="1610" width="20" height="20" as="geometry" />
        </mxCell>
        <mxCell id="wVbVgi7mBvC_HDMRMZZE-395" value="" style="curved=1;endArrow=classic;html=1;rounded=0;entryX=0.574;entryY=0.321;entryDx=0;entryDy=0;entryPerimeter=0;" parent="1" target="wVbVgi7mBvC_HDMRMZZE-396" edge="1">
          <mxGeometry width="50" height="50" relative="1" as="geometry">
            <mxPoint x="186.25" y="1630" as="sourcePoint" />
            <mxPoint x="316.5" y="1610" as="targetPoint" />
            <Array as="points">
              <mxPoint x="186.5" y="1630" />
              <mxPoint x="216.5" y="1610" />
            </Array>
          </mxGeometry>
        </mxCell>
        <mxCell id="wVbVgi7mBvC_HDMRMZZE-396" value="" style="shape=waypoint;fillStyle=solid;size=6;pointerEvents=1;points=[];resizable=0;rotatable=0;perimeter=centerPerimeter;snapToPoint=1;strokeWidth=8;fillColor=none;strokeColor=default;perimeterSpacing=0;shadow=0;sketch=0;" parent="1" vertex="1">
          <mxGeometry x="303.75" y="1615" width="20" height="20" as="geometry" />
        </mxCell>
        <mxCell id="wVbVgi7mBvC_HDMRMZZE-397" value="lastName" style="text;html=1;align=center;verticalAlign=middle;resizable=0;points=[];autosize=1;strokeColor=none;fillColor=none;" parent="1" vertex="1">
          <mxGeometry x="274.25" y="1548" width="70" height="30" as="geometry" />
        </mxCell>
        <mxCell id="wVbVgi7mBvC_HDMRMZZE-398" value="" style="endArrow=none;html=1;rounded=0;" parent="1" edge="1">
          <mxGeometry width="50" height="50" relative="1" as="geometry">
            <mxPoint x="249.75" y="1681" as="sourcePoint" />
            <mxPoint x="273.75" y="1730" as="targetPoint" />
          </mxGeometry>
        </mxCell>
        <mxCell id="wVbVgi7mBvC_HDMRMZZE-399" value="" style="ellipse;whiteSpace=wrap;html=1;aspect=fixed;shadow=0;sketch=0;fillStyle=solid;strokeColor=#330000;strokeWidth=1;fillColor=#FFFFFF;" parent="1" vertex="1">
          <mxGeometry x="265.25" y="1730" width="20" height="20" as="geometry" />
        </mxCell>
        <mxCell id="wVbVgi7mBvC_HDMRMZZE-400" value="" style="endArrow=none;html=1;rounded=0;" parent="1" edge="1">
          <mxGeometry relative="1" as="geometry">
            <mxPoint x="40.660000000000025" y="1554" as="sourcePoint" />
            <mxPoint x="40.660000000000025" y="1630" as="targetPoint" />
          </mxGeometry>
        </mxCell>
        <mxCell id="wVbVgi7mBvC_HDMRMZZE-401" value="(1, N)" style="resizable=0;html=1;align=left;verticalAlign=bottom;shadow=0;sketch=0;fillStyle=solid;strokeColor=#330000;strokeWidth=1;fillColor=#FFFFFF;" parent="wVbVgi7mBvC_HDMRMZZE-400" connectable="0" vertex="1">
          <mxGeometry x="-1" relative="1" as="geometry">
            <mxPoint x="1" y="19" as="offset" />
          </mxGeometry>
        </mxCell>
        <mxCell id="wVbVgi7mBvC_HDMRMZZE-404" value="pseudonym" style="text;html=1;align=center;verticalAlign=middle;resizable=0;points=[];autosize=1;strokeColor=none;fillColor=none;" parent="1" vertex="1">
          <mxGeometry x="272.25" y="1733" width="90" height="30" as="geometry" />
        </mxCell>
        <mxCell id="wVbVgi7mBvC_HDMRMZZE-405" value="" style="endArrow=none;html=1;rounded=0;entryX=-0.014;entryY=-0.133;entryDx=0;entryDy=0;entryPerimeter=0;" parent="1" edge="1">
          <mxGeometry width="50" height="50" relative="1" as="geometry">
            <mxPoint x="87" y="1535" as="sourcePoint" />
            <mxPoint x="144.99" y="1507.9899999999998" as="targetPoint" />
          </mxGeometry>
        </mxCell>
        <mxCell id="wVbVgi7mBvC_HDMRMZZE-406" value="" style="ellipse;whiteSpace=wrap;html=1;aspect=fixed;shadow=0;sketch=0;fillStyle=solid;strokeColor=#330000;strokeWidth=1;fillColor=#FFFFFF;flipV=1;" parent="1" vertex="1">
          <mxGeometry x="142" y="1497" width="20" height="20" as="geometry" />
        </mxCell>
        <mxCell id="wVbVgi7mBvC_HDMRMZZE-407" value="pseudonym" style="text;html=1;align=center;verticalAlign=middle;resizable=0;points=[];autosize=1;strokeColor=none;fillColor=none;flipV=1;" parent="1" vertex="1">
          <mxGeometry x="146.25" y="1478" width="90" height="30" as="geometry" />
        </mxCell>
        <mxCell id="wVbVgi7mBvC_HDMRMZZE-410" value="" style="endArrow=none;html=1;rounded=0;" parent="1" edge="1">
          <mxGeometry relative="1" as="geometry">
            <mxPoint x="-146.58999999999997" y="1762" as="sourcePoint" />
            <mxPoint x="-146.58999999999997" y="1680" as="targetPoint" />
          </mxGeometry>
        </mxCell>
        <mxCell id="wVbVgi7mBvC_HDMRMZZE-411" value="(1, N)" style="resizable=0;html=1;align=left;verticalAlign=bottom;shadow=0;sketch=0;fillStyle=solid;strokeColor=#330000;strokeWidth=1;fillColor=#FFFFFF;" parent="wVbVgi7mBvC_HDMRMZZE-410" connectable="0" vertex="1">
          <mxGeometry x="-1" relative="1" as="geometry">
            <mxPoint x="1" y="-59" as="offset" />
          </mxGeometry>
        </mxCell>
        <mxCell id="wVbVgi7mBvC_HDMRMZZE-412" value="STARRING" style="shape=rhombus;perimeter=rhombusPerimeter;whiteSpace=wrap;html=1;align=center;shadow=0;sketch=0;fillStyle=solid;strokeColor=#330000;strokeWidth=1;fillColor=#FFFFFF;" parent="1" vertex="1">
          <mxGeometry x="-207" y="1763" width="120" height="60" as="geometry" />
        </mxCell>
        <mxCell id="wVbVgi7mBvC_HDMRMZZE-413" value="" style="endArrow=none;html=1;rounded=0;" parent="1" edge="1">
          <mxGeometry relative="1" as="geometry">
            <mxPoint x="-146.58999999999997" y="1905" as="sourcePoint" />
            <mxPoint x="-146.58999999999997" y="1823" as="targetPoint" />
          </mxGeometry>
        </mxCell>
        <mxCell id="wVbVgi7mBvC_HDMRMZZE-414" value="(1, N)" style="resizable=0;html=1;align=left;verticalAlign=bottom;shadow=0;sketch=0;fillStyle=solid;strokeColor=#330000;strokeWidth=1;fillColor=#FFFFFF;" parent="wVbVgi7mBvC_HDMRMZZE-413" connectable="0" vertex="1">
          <mxGeometry x="-1" relative="1" as="geometry">
            <mxPoint x="1" y="-2" as="offset" />
          </mxGeometry>
        </mxCell>
        <mxCell id="wVbVgi7mBvC_HDMRMZZE-415" value="CHARACTER" style="whiteSpace=wrap;html=1;align=center;shadow=0;sketch=0;fillStyle=solid;strokeColor=#330000;strokeWidth=1;fillColor=#FFFFFF;" parent="1" vertex="1">
          <mxGeometry x="-196" y="1906" width="100" height="40" as="geometry" />
        </mxCell>
        <mxCell id="3XlOtEZdqVWkjSuW6pGu-1" value="" style="html=1;shadow=0;dashed=0;align=center;verticalAlign=middle;shape=mxgraph.arrows2.arrow;dy=0.6;dx=40;direction=north;notch=0;fillStyle=solid;fillColor=#000000;" parent="1" vertex="1">
          <mxGeometry x="-162" y="1946" width="30" height="14.55" as="geometry" />
        </mxCell>
        <mxCell id="3XlOtEZdqVWkjSuW6pGu-2" value="" style="rounded=0;whiteSpace=wrap;html=1;" parent="1" vertex="1">
          <mxGeometry x="-152" y="1960.55" width="10" height="40" as="geometry" />
        </mxCell>
        <mxCell id="3XlOtEZdqVWkjSuW6pGu-3" value="" style="endArrow=none;html=1;rounded=0;" parent="1" edge="1">
          <mxGeometry width="50" height="50" relative="1" as="geometry">
            <mxPoint x="-280" y="2000" as="sourcePoint" />
            <mxPoint x="-10" y="2000" as="targetPoint" />
          </mxGeometry>
        </mxCell>
        <mxCell id="3XlOtEZdqVWkjSuW6pGu-4" value="" style="endArrow=none;html=1;rounded=0;" parent="1" edge="1">
          <mxGeometry width="50" height="50" relative="1" as="geometry">
            <mxPoint x="-280" y="2040" as="sourcePoint" />
            <mxPoint x="-280" y="2000" as="targetPoint" />
          </mxGeometry>
        </mxCell>
        <mxCell id="3XlOtEZdqVWkjSuW6pGu-5" value="" style="endArrow=none;html=1;rounded=0;" parent="1" edge="1">
          <mxGeometry width="50" height="50" relative="1" as="geometry">
            <mxPoint x="-147" y="2040" as="sourcePoint" />
            <mxPoint x="-147" y="2000" as="targetPoint" />
          </mxGeometry>
        </mxCell>
        <mxCell id="3XlOtEZdqVWkjSuW6pGu-6" value="" style="endArrow=none;html=1;rounded=0;" parent="1" edge="1">
          <mxGeometry width="50" height="50" relative="1" as="geometry">
            <mxPoint x="-10" y="2040" as="sourcePoint" />
            <mxPoint x="-10" y="2000" as="targetPoint" />
          </mxGeometry>
        </mxCell>
        <mxCell id="3XlOtEZdqVWkjSuW6pGu-7" value="PROTAGONIST" style="whiteSpace=wrap;html=1;align=center;fillStyle=auto;fillColor=#ffffff;" parent="1" vertex="1">
          <mxGeometry x="-331" y="2040" width="100" height="40" as="geometry" />
        </mxCell>
        <mxCell id="3XlOtEZdqVWkjSuW6pGu-8" value="FRIEND" style="whiteSpace=wrap;html=1;align=center;fillStyle=auto;fillColor=#ffffff;" parent="1" vertex="1">
          <mxGeometry x="-196" y="2040" width="100" height="40" as="geometry" />
        </mxCell>
        <mxCell id="3XlOtEZdqVWkjSuW6pGu-9" value="FOE" style="whiteSpace=wrap;html=1;align=center;fillStyle=auto;fillColor=#ffffff;" parent="1" vertex="1">
          <mxGeometry x="-64" y="2040" width="100" height="40" as="geometry" />
        </mxCell>
        <mxCell id="3XlOtEZdqVWkjSuW6pGu-12" value="firstName" style="text;html=1;align=center;verticalAlign=middle;resizable=0;points=[];autosize=1;strokeColor=none;fillColor=none;" parent="1" vertex="1">
          <mxGeometry x="-92.5" y="1820" width="70" height="30" as="geometry" />
        </mxCell>
        <mxCell id="3XlOtEZdqVWkjSuW6pGu-13" value="" style="edgeStyle=none;rounded=0;orthogonalLoop=1;jettySize=auto;html=1;exitX=0.75;exitY=0;exitDx=0;exitDy=0;endArrow=none;" parent="1" edge="1">
          <mxGeometry relative="1" as="geometry">
            <mxPoint x="-94.8304547985374" y="1855.9654575824497" as="targetPoint" />
            <mxPoint x="-99" y="1906" as="sourcePoint" />
          </mxGeometry>
        </mxCell>
        <mxCell id="3XlOtEZdqVWkjSuW6pGu-14" value="" style="ellipse;whiteSpace=wrap;html=1;fillColor=#FFFFFF;strokeColor=#330000;shadow=0;sketch=0;fillStyle=solid;strokeWidth=1;" parent="1" vertex="1">
          <mxGeometry x="-30" y="1878" width="20" height="20" as="geometry" />
        </mxCell>
        <mxCell id="3XlOtEZdqVWkjSuW6pGu-15" value="" style="ellipse;whiteSpace=wrap;html=1;fillColor=#FFFFFF;strokeColor=#330000;shadow=0;sketch=0;fillStyle=solid;strokeWidth=1;" parent="1" vertex="1">
          <mxGeometry x="-105" y="1836" width="20" height="20" as="geometry" />
        </mxCell>
        <mxCell id="3XlOtEZdqVWkjSuW6pGu-20" value="lastName" style="text;html=1;align=center;verticalAlign=middle;resizable=0;points=[];autosize=1;strokeColor=none;fillColor=none;" parent="1" vertex="1">
          <mxGeometry x="-20" y="1859" width="70" height="30" as="geometry" />
        </mxCell>
        <mxCell id="3XlOtEZdqVWkjSuW6pGu-23" value="" style="edgeStyle=none;rounded=0;orthogonalLoop=1;jettySize=auto;html=1;exitX=0.75;exitY=0;exitDx=0;exitDy=0;endArrow=none;" parent="1" edge="1">
          <mxGeometry relative="1" as="geometry">
            <mxPoint x="-30" y="1890" as="targetPoint" />
            <mxPoint x="-96" y="1916" as="sourcePoint" />
          </mxGeometry>
        </mxCell>
        <mxCell id="3XlOtEZdqVWkjSuW6pGu-25" value="" style="endArrow=none;html=1;rounded=0;" parent="1" edge="1">
          <mxGeometry width="50" height="50" relative="1" as="geometry">
            <mxPoint x="-176" y="1906" as="sourcePoint" />
            <mxPoint x="-220" y="1855" as="targetPoint" />
          </mxGeometry>
        </mxCell>
        <mxCell id="3XlOtEZdqVWkjSuW6pGu-26" value="" style="ellipse;whiteSpace=wrap;html=1;fillColor=#000000;strokeColor=#330000;shadow=0;sketch=0;fillStyle=solid;strokeWidth=1;" parent="1" vertex="1">
          <mxGeometry x="-235" y="1836" width="20" height="20" as="geometry" />
        </mxCell>
        <mxCell id="3XlOtEZdqVWkjSuW6pGu-27" value="pseudonym" style="text;html=1;align=center;verticalAlign=middle;resizable=0;points=[];autosize=1;strokeColor=none;fillColor=none;flipV=1;" parent="1" vertex="1">
          <mxGeometry x="-314" y="1821" width="90" height="30" as="geometry" />
        </mxCell>
        <mxCell id="3XlOtEZdqVWkjSuW6pGu-28" value="" style="endArrow=none;html=1;rounded=0;" parent="1" edge="1">
          <mxGeometry width="50" height="50" relative="1" as="geometry">
            <mxPoint x="-174" y="1776" as="sourcePoint" />
            <mxPoint x="-210" y="1730" as="targetPoint" />
          </mxGeometry>
        </mxCell>
        <mxCell id="3XlOtEZdqVWkjSuW6pGu-29" value="" style="endArrow=none;html=1;rounded=0;" parent="1" edge="1">
          <mxGeometry width="50" height="50" relative="1" as="geometry">
            <mxPoint x="-85" y="1730" as="sourcePoint" />
            <mxPoint x="-121" y="1776" as="targetPoint" />
          </mxGeometry>
        </mxCell>
        <mxCell id="3XlOtEZdqVWkjSuW6pGu-30" value="" style="ellipse;whiteSpace=wrap;html=1;fillColor=#FFFFFF;strokeColor=#330000;shadow=0;sketch=0;fillStyle=solid;strokeWidth=1;" parent="1" vertex="1">
          <mxGeometry x="-93" y="1713" width="20" height="20" as="geometry" />
        </mxCell>
        <mxCell id="3XlOtEZdqVWkjSuW6pGu-31" value="" style="ellipse;whiteSpace=wrap;html=1;fillColor=#FFFFFF;strokeColor=#330000;shadow=0;sketch=0;fillStyle=solid;strokeWidth=1;" parent="1" vertex="1">
          <mxGeometry x="-220" y="1713" width="20" height="20" as="geometry" />
        </mxCell>
        <mxCell id="3XlOtEZdqVWkjSuW6pGu-32" value="city" style="text;html=1;align=center;verticalAlign=middle;resizable=0;points=[];autosize=1;strokeColor=none;fillColor=none;" parent="1" vertex="1">
          <mxGeometry x="-253.5" y="1700" width="40" height="30" as="geometry" />
        </mxCell>
        <mxCell id="3XlOtEZdqVWkjSuW6pGu-33" value="state" style="text;html=1;align=center;verticalAlign=middle;resizable=0;points=[];autosize=1;strokeColor=none;fillColor=none;" parent="1" vertex="1">
          <mxGeometry x="-83.5" y="1700" width="50" height="30" as="geometry" />
        </mxCell>
        <mxCell id="3XlOtEZdqVWkjSuW6pGu-34" value="The generalization CHARACTER is introduced. Its occurrences are&amp;nbsp;the &lt;br&gt;characters that appear (star) in the comic book:&amp;nbsp;the comic book protagonist &lt;br&gt;usually gives name to the comic&amp;nbsp;book&amp;nbsp;itself" style="text;html=1;align=center;verticalAlign=middle;resizable=0;points=[];autosize=1;strokeColor=none;fillColor=none;" parent="1" vertex="1">
          <mxGeometry x="-630" y="1877" width="420" height="60" as="geometry" />
        </mxCell>
        <mxCell id="3XlOtEZdqVWkjSuW6pGu-35" value="" style="endArrow=classic;html=1;rounded=0;" parent="1" edge="1">
          <mxGeometry width="50" height="50" relative="1" as="geometry">
            <mxPoint x="-295" y="1929" as="sourcePoint" />
            <mxPoint x="-220" y="1940" as="targetPoint" />
          </mxGeometry>
        </mxCell>
        <mxCell id="HoVi9p8Lm3jnbSQNBDDz-1" value="" style="endArrow=none;html=1;rounded=0;entryX=1;entryY=1;entryDx=0;entryDy=0;" parent="1" target="HoVi9p8Lm3jnbSQNBDDz-2" edge="1">
          <mxGeometry width="50" height="50" relative="1" as="geometry">
            <mxPoint x="-104" y="1160" as="sourcePoint" />
            <mxPoint x="-80" y="1209" as="targetPoint" />
          </mxGeometry>
        </mxCell>
        <mxCell id="HoVi9p8Lm3jnbSQNBDDz-2" value="" style="ellipse;whiteSpace=wrap;html=1;aspect=fixed;shadow=0;sketch=0;fillStyle=solid;strokeColor=#330000;strokeWidth=1;fillColor=#FFFFFF;" parent="1" vertex="1">
          <mxGeometry x="-56.5" y="1180" width="20" height="20" as="geometry" />
        </mxCell>
        <mxCell id="HoVi9p8Lm3jnbSQNBDDz-3" value="coverTitle" style="text;html=1;align=center;verticalAlign=middle;resizable=0;points=[];autosize=1;strokeColor=none;fillColor=none;" parent="1" vertex="1">
          <mxGeometry x="-52" y="1190" width="80" height="30" as="geometry" />
        </mxCell>
        <mxCell id="HoVi9p8Lm3jnbSQNBDDz-7" value="" style="curved=1;endArrow=classic;html=1;rounded=0;" parent="1" edge="1">
          <mxGeometry width="50" height="50" relative="1" as="geometry">
            <mxPoint x="-231" y="1193" as="sourcePoint" />
            <mxPoint x="-109.5" y="1193" as="targetPoint" />
            <Array as="points">
              <mxPoint x="-230.75" y="1193" />
              <mxPoint x="-200.75" y="1173" />
            </Array>
          </mxGeometry>
        </mxCell>
        <mxCell id="HoVi9p8Lm3jnbSQNBDDz-9" value="" style="endArrow=none;html=1;rounded=0;" parent="1" target="HoVi9p8Lm3jnbSQNBDDz-8" edge="1">
          <mxGeometry width="50" height="50" relative="1" as="geometry">
            <mxPoint x="-198" y="1161" as="sourcePoint" />
            <mxPoint x="-222" y="1210" as="targetPoint" />
          </mxGeometry>
        </mxCell>
        <mxCell id="HoVi9p8Lm3jnbSQNBDDz-8" value="" style="shape=waypoint;fillStyle=solid;size=6;pointerEvents=1;points=[];resizable=0;rotatable=0;perimeter=centerPerimeter;snapToPoint=1;strokeWidth=3;fillColor=none;strokeColor=default;perimeterSpacing=0;shadow=0;sketch=0;flipV=0;flipH=0;" parent="1" vertex="1">
          <mxGeometry x="-220" y="1177" width="20" height="20" as="geometry" />
        </mxCell>
        <mxCell id="HoVi9p8Lm3jnbSQNBDDz-10" value="" style="shape=waypoint;fillStyle=solid;size=6;pointerEvents=1;points=[];resizable=0;rotatable=0;perimeter=centerPerimeter;snapToPoint=1;strokeWidth=3;fillColor=none;strokeColor=default;perimeterSpacing=0;shadow=0;sketch=0;flipV=0;flipH=0;" parent="1" vertex="1">
          <mxGeometry x="-153" y="1177" width="20" height="20" as="geometry" />
        </mxCell>
        <mxCell id="HoVi9p8Lm3jnbSQNBDDz-11" value="" style="ellipse;whiteSpace=wrap;html=1;aspect=fixed;fillColor=#000000;" parent="1" vertex="1">
          <mxGeometry x="-123.5" y="1181" width="20" height="20" as="geometry" />
        </mxCell>
        <mxCell id="HoVi9p8Lm3jnbSQNBDDz-13" value="" style="shape=waypoint;fillStyle=solid;size=6;pointerEvents=1;points=[];resizable=0;rotatable=0;perimeter=centerPerimeter;snapToPoint=1;strokeWidth=3;fillColor=none;strokeColor=default;perimeterSpacing=0;shadow=0;sketch=0;flipV=0;flipH=0;" parent="1" vertex="1">
          <mxGeometry x="-3" y="966" width="20" height="20" as="geometry" />
        </mxCell>
        <mxCell id="HoVi9p8Lm3jnbSQNBDDz-14" value="" style="shape=waypoint;fillStyle=solid;size=6;pointerEvents=1;points=[];resizable=0;rotatable=0;perimeter=centerPerimeter;snapToPoint=1;strokeWidth=3;fillColor=none;strokeColor=default;perimeterSpacing=0;shadow=0;sketch=0;flipV=0;flipH=0;" parent="1" vertex="1">
          <mxGeometry x="49" y="965" width="20" height="20" as="geometry" />
        </mxCell>
        <mxCell id="HoVi9p8Lm3jnbSQNBDDz-15" value="" style="endArrow=none;html=1;rounded=0;" parent="1" edge="1">
          <mxGeometry width="50" height="50" relative="1" as="geometry">
            <mxPoint x="-145" y="1584" as="sourcePoint" />
            <mxPoint x="-138" y="1640" as="targetPoint" />
          </mxGeometry>
        </mxCell>
        <mxCell id="HoVi9p8Lm3jnbSQNBDDz-16" value="" style="ellipse;whiteSpace=wrap;html=1;aspect=fixed;shadow=0;sketch=0;fillStyle=solid;strokeColor=#330000;strokeWidth=1;fillColor=#FFFFFF;" parent="1" vertex="1">
          <mxGeometry x="-156" y="1565" width="20" height="20" as="geometry" />
        </mxCell>
        <mxCell id="HoVi9p8Lm3jnbSQNBDDz-17" value="series" style="text;html=1;align=center;verticalAlign=middle;resizable=0;points=[];autosize=1;strokeColor=none;fillColor=none;" parent="1" vertex="1">
          <mxGeometry x="-204" y="1552" width="60" height="30" as="geometry" />
        </mxCell>
        <mxCell id="HoVi9p8Lm3jnbSQNBDDz-19" value="" style="curved=1;endArrow=classic;html=1;rounded=0;" parent="1" edge="1">
          <mxGeometry width="50" height="50" relative="1" as="geometry">
            <mxPoint x="-122.5" y="1623" as="sourcePoint" />
            <mxPoint x="-244" y="1623" as="targetPoint" />
            <Array as="points">
              <mxPoint x="-122.75" y="1623" />
              <mxPoint x="-152.75" y="1603" />
            </Array>
          </mxGeometry>
        </mxCell>
        <mxCell id="HoVi9p8Lm3jnbSQNBDDz-20" value="" style="shape=waypoint;fillStyle=solid;size=6;pointerEvents=1;points=[];resizable=0;rotatable=0;perimeter=centerPerimeter;snapToPoint=1;strokeWidth=3;fillColor=none;strokeColor=default;perimeterSpacing=0;shadow=0;sketch=0;flipV=0;flipH=0;" parent="1" vertex="1">
          <mxGeometry x="-218" y="1607" width="20" height="20" as="geometry" />
        </mxCell>
        <mxCell id="HoVi9p8Lm3jnbSQNBDDz-21" value="" style="shape=waypoint;fillStyle=solid;size=6;pointerEvents=1;points=[];resizable=0;rotatable=0;perimeter=centerPerimeter;snapToPoint=1;strokeWidth=3;fillColor=none;strokeColor=default;perimeterSpacing=0;shadow=0;sketch=0;flipV=0;flipH=0;" parent="1" vertex="1">
          <mxGeometry x="-151" y="1606" width="20" height="20" as="geometry" />
        </mxCell>
        <mxCell id="HoVi9p8Lm3jnbSQNBDDz-22" value="" style="ellipse;whiteSpace=wrap;html=1;aspect=fixed;fillColor=#000000;" parent="1" vertex="1">
          <mxGeometry x="-251.5" y="1613" width="20" height="20" as="geometry" />
        </mxCell>
        <mxCell id="dfr2jbNyBmmzeJJUGpiP-5" value="MATERIAL" style="whiteSpace=wrap;html=1;align=center;shadow=0;sketch=0;fillStyle=solid;strokeColor=#330000;strokeWidth=1;fillColor=#FFFFFF;movable=1;resizable=1;rotatable=1;deletable=1;editable=1;locked=0;connectable=1;direction=west;" vertex="1" parent="1">
          <mxGeometry x="140.25" y="160" width="100" height="40" as="geometry" />
        </mxCell>
        <mxCell id="dfr2jbNyBmmzeJJUGpiP-6" value="" style="endArrow=none;html=1;rounded=0;movable=1;resizable=1;rotatable=1;deletable=1;editable=1;locked=0;connectable=1;" edge="1" parent="1">
          <mxGeometry relative="1" as="geometry">
            <mxPoint x="60.5" y="180" as="sourcePoint" />
            <mxPoint x="140.5" y="180" as="targetPoint" />
          </mxGeometry>
        </mxCell>
        <mxCell id="dfr2jbNyBmmzeJJUGpiP-7" value="" style="endArrow=none;html=1;rounded=0;" edge="1" parent="1" source="dfr2jbNyBmmzeJJUGpiP-8">
          <mxGeometry width="50" height="50" relative="1" as="geometry">
            <mxPoint x="-540" y="614" as="sourcePoint" />
            <mxPoint x="-535" y="680" as="targetPoint" />
          </mxGeometry>
        </mxCell>
        <mxCell id="dfr2jbNyBmmzeJJUGpiP-9" value="country" style="text;html=1;align=center;verticalAlign=middle;resizable=0;points=[];autosize=1;strokeColor=none;fillColor=none;" vertex="1" parent="1">
          <mxGeometry x="-526.5" y="669" width="60" height="30" as="geometry" />
        </mxCell>
        <mxCell id="dfr2jbNyBmmzeJJUGpiP-10" value="" style="endArrow=none;html=1;rounded=0;" edge="1" parent="1" target="dfr2jbNyBmmzeJJUGpiP-8">
          <mxGeometry width="50" height="50" relative="1" as="geometry">
            <mxPoint x="-540" y="614" as="sourcePoint" />
            <mxPoint x="-535" y="680" as="targetPoint" />
          </mxGeometry>
        </mxCell>
        <mxCell id="dfr2jbNyBmmzeJJUGpiP-8" value="" style="ellipse;whiteSpace=wrap;html=1;aspect=fixed;shadow=0;sketch=0;fillStyle=solid;strokeColor=#330000;strokeWidth=1;fillColor=#FFFFFF;" vertex="1" parent="1">
          <mxGeometry x="-545" y="669" width="20" height="20" as="geometry" />
        </mxCell>
        <mxCell id="dfr2jbNyBmmzeJJUGpiP-12" value="" style="endArrow=none;html=1;rounded=0;" edge="1" parent="1">
          <mxGeometry width="50" height="50" relative="1" as="geometry">
            <mxPoint x="-590" y="613" as="sourcePoint" />
            <mxPoint x="-590" y="680" as="targetPoint" />
          </mxGeometry>
        </mxCell>
        <mxCell id="dfr2jbNyBmmzeJJUGpiP-13" value="" style="ellipse;whiteSpace=wrap;html=1;aspect=fixed;shadow=0;sketch=0;fillStyle=solid;strokeColor=#330000;strokeWidth=1;fillColor=#FFFFFF;" vertex="1" parent="1">
          <mxGeometry x="-600" y="672" width="20" height="20" as="geometry" />
        </mxCell>
        <mxCell id="dfr2jbNyBmmzeJJUGpiP-14" value="town" style="text;html=1;align=center;verticalAlign=middle;resizable=0;points=[];autosize=1;strokeColor=none;fillColor=none;" vertex="1" parent="1">
          <mxGeometry x="-614" y="690" width="50" height="30" as="geometry" />
        </mxCell>
        <mxCell id="dfr2jbNyBmmzeJJUGpiP-17" value="" style="endArrow=none;html=1;rounded=0;" edge="1" parent="1">
          <mxGeometry width="50" height="50" relative="1" as="geometry">
            <mxPoint x="-640" y="594" as="sourcePoint" />
            <mxPoint x="-713" y="594" as="targetPoint" />
          </mxGeometry>
        </mxCell>
        <mxCell id="dfr2jbNyBmmzeJJUGpiP-18" value="" style="ellipse;whiteSpace=wrap;html=1;aspect=fixed;shadow=0;sketch=0;fillStyle=solid;strokeColor=#330000;strokeWidth=1;fillColor=#000000;" vertex="1" parent="1">
          <mxGeometry x="-725" y="585" width="20" height="20" as="geometry" />
        </mxCell>
        <mxCell id="dfr2jbNyBmmzeJJUGpiP-19" value="studentID" style="text;html=1;align=center;verticalAlign=middle;resizable=0;points=[];autosize=1;strokeColor=none;fillColor=none;" vertex="1" parent="1">
          <mxGeometry x="-790" y="590" width="70" height="30" as="geometry" />
        </mxCell>
        <mxCell id="dfr2jbNyBmmzeJJUGpiP-20" value="" style="edgeStyle=none;rounded=0;orthogonalLoop=1;jettySize=auto;html=1;exitX=0.75;exitY=0;exitDx=0;exitDy=0;endArrow=none;" edge="1" parent="1">
          <mxGeometry relative="1" as="geometry">
            <mxPoint x="-590" y="510" as="targetPoint" />
            <mxPoint x="-592" y="574" as="sourcePoint" />
          </mxGeometry>
        </mxCell>
        <mxCell id="dfr2jbNyBmmzeJJUGpiP-21" value="" style="ellipse;whiteSpace=wrap;html=1;fillColor=#FFFFFF;strokeColor=#330000;shadow=0;sketch=0;fillStyle=solid;strokeWidth=1;" vertex="1" parent="1">
          <mxGeometry x="-600" y="500" width="20" height="20" as="geometry" />
        </mxCell>
        <mxCell id="dfr2jbNyBmmzeJJUGpiP-22" value="lastName" style="text;html=1;align=center;verticalAlign=middle;resizable=0;points=[];autosize=1;strokeColor=none;fillColor=none;" vertex="1" parent="1">
          <mxGeometry x="-621" y="476" width="70" height="30" as="geometry" />
        </mxCell>
        <mxCell id="dfr2jbNyBmmzeJJUGpiP-23" value="COURSE" style="whiteSpace=wrap;html=1;align=center;shadow=0;sketch=0;fillStyle=solid;strokeColor=#330000;strokeWidth=1;fillColor=#FFFFFF;" vertex="1" parent="1">
          <mxGeometry x="380.5" y="480" width="100" height="40" as="geometry" />
        </mxCell>
        <mxCell id="dfr2jbNyBmmzeJJUGpiP-24" value="INSTRUCTOR" style="whiteSpace=wrap;html=1;align=center;shadow=0;sketch=0;fillStyle=solid;strokeColor=#330000;strokeWidth=1;fillColor=#FFFFFF;" vertex="1" parent="1">
          <mxGeometry x="380.5" y="720" width="100" height="40" as="geometry" />
        </mxCell>
        <mxCell id="dfr2jbNyBmmzeJJUGpiP-25" value="TEACHING" style="shape=rhombus;perimeter=rhombusPerimeter;whiteSpace=wrap;html=1;align=center;shadow=0;sketch=0;fillStyle=solid;strokeColor=#330000;strokeWidth=1;fillColor=#FFFFFF;" vertex="1" parent="1">
          <mxGeometry x="370.5" y="590" width="120" height="60" as="geometry" />
        </mxCell>
        <mxCell id="dfr2jbNyBmmzeJJUGpiP-26" value="" style="endArrow=none;html=1;rounded=0;" edge="1" parent="1">
          <mxGeometry relative="1" as="geometry">
            <mxPoint x="430.5" y="520" as="sourcePoint" />
            <mxPoint x="430.5" y="590" as="targetPoint" />
          </mxGeometry>
        </mxCell>
        <mxCell id="dfr2jbNyBmmzeJJUGpiP-27" value="" style="endArrow=none;html=1;rounded=0;" edge="1" parent="1">
          <mxGeometry relative="1" as="geometry">
            <mxPoint x="430.5" y="650" as="sourcePoint" />
            <mxPoint x="430.5" y="720" as="targetPoint" />
          </mxGeometry>
        </mxCell>
        <mxCell id="dfr2jbNyBmmzeJJUGpiP-28" style="edgeStyle=none;rounded=0;orthogonalLoop=1;jettySize=auto;html=1;exitX=0.75;exitY=0;exitDx=0;exitDy=0;startArrow=none;" edge="1" parent="1" source="dfr2jbNyBmmzeJJUGpiP-32">
          <mxGeometry relative="1" as="geometry">
            <mxPoint x="457.5" y="420" as="targetPoint" />
          </mxGeometry>
        </mxCell>
        <mxCell id="dfr2jbNyBmmzeJJUGpiP-29" style="edgeStyle=none;rounded=0;orthogonalLoop=1;jettySize=auto;html=1;exitX=0.25;exitY=0;exitDx=0;exitDy=0;" edge="1" parent="1">
          <mxGeometry relative="1" as="geometry">
            <mxPoint x="397.5" y="420" as="targetPoint" />
            <mxPoint x="402.5" y="480" as="sourcePoint" />
          </mxGeometry>
        </mxCell>
        <mxCell id="dfr2jbNyBmmzeJJUGpiP-30" value="courseName" style="text;html=1;align=center;verticalAlign=middle;resizable=0;points=[];autosize=1;strokeColor=none;fillColor=none;" vertex="1" parent="1">
          <mxGeometry x="327.5" y="386" width="90" height="30" as="geometry" />
        </mxCell>
        <mxCell id="dfr2jbNyBmmzeJJUGpiP-31" value="" style="edgeStyle=none;rounded=0;orthogonalLoop=1;jettySize=auto;html=1;exitX=0.75;exitY=0;exitDx=0;exitDy=0;endArrow=none;" edge="1" parent="1" target="dfr2jbNyBmmzeJJUGpiP-32">
          <mxGeometry relative="1" as="geometry">
            <mxPoint x="457.5" y="420" as="targetPoint" />
            <mxPoint x="452.5" y="480" as="sourcePoint" />
          </mxGeometry>
        </mxCell>
        <mxCell id="dfr2jbNyBmmzeJJUGpiP-32" value="" style="ellipse;whiteSpace=wrap;html=1;fillColor=#FFFFFF;strokeColor=#330000;shadow=0;sketch=0;fillStyle=solid;strokeWidth=1;" vertex="1" parent="1">
          <mxGeometry x="447.5" y="410" width="20" height="20" as="geometry" />
        </mxCell>
        <mxCell id="dfr2jbNyBmmzeJJUGpiP-33" value="" style="ellipse;whiteSpace=wrap;html=1;fillColor=#FFFFFF;strokeColor=#330000;shadow=0;sketch=0;fillStyle=solid;strokeWidth=1;" vertex="1" parent="1">
          <mxGeometry x="387.5" y="410" width="20" height="20" as="geometry" />
        </mxCell>
        <mxCell id="dfr2jbNyBmmzeJJUGpiP-34" value="" style="shape=waypoint;fillStyle=solid;size=6;pointerEvents=1;points=[];resizable=0;rotatable=0;perimeter=centerPerimeter;snapToPoint=1;strokeWidth=3;fillColor=none;strokeColor=default;perimeterSpacing=0;shadow=0;sketch=0;flipV=0;flipH=0;" vertex="1" parent="1">
          <mxGeometry x="390.5" y="450.0000000000001" width="20" height="20" as="geometry" />
        </mxCell>
        <mxCell id="dfr2jbNyBmmzeJJUGpiP-35" value="" style="shape=waypoint;fillStyle=solid;size=6;pointerEvents=1;points=[];resizable=0;rotatable=0;perimeter=centerPerimeter;snapToPoint=1;strokeWidth=3;fillColor=none;strokeColor=default;perimeterSpacing=0;shadow=0;sketch=0;flipV=0;flipH=0;" vertex="1" parent="1">
          <mxGeometry x="444.5" y="450.0000000000001" width="20" height="20" as="geometry" />
        </mxCell>
        <mxCell id="dfr2jbNyBmmzeJJUGpiP-36" value="" style="curved=1;endArrow=classic;html=1;rounded=0;entryX=0.574;entryY=0.321;entryDx=0;entryDy=0;entryPerimeter=0;" edge="1" parent="1" target="dfr2jbNyBmmzeJJUGpiP-37">
          <mxGeometry width="50" height="50" relative="1" as="geometry">
            <mxPoint x="372.5" y="470" as="sourcePoint" />
            <mxPoint x="502.75" y="450" as="targetPoint" />
            <Array as="points">
              <mxPoint x="372.75" y="470" />
              <mxPoint x="402.75" y="450" />
            </Array>
          </mxGeometry>
        </mxCell>
        <mxCell id="dfr2jbNyBmmzeJJUGpiP-37" value="" style="shape=waypoint;fillStyle=solid;size=6;pointerEvents=1;points=[];resizable=0;rotatable=0;perimeter=centerPerimeter;snapToPoint=1;strokeWidth=8;fillColor=none;strokeColor=default;perimeterSpacing=0;shadow=0;sketch=0;" vertex="1" parent="1">
          <mxGeometry x="490" y="455.0000000000001" width="20" height="20" as="geometry" />
        </mxCell>
        <mxCell id="dfr2jbNyBmmzeJJUGpiP-38" value="courseYear" style="text;html=1;align=center;verticalAlign=middle;resizable=0;points=[];autosize=1;strokeColor=none;fillColor=none;" vertex="1" parent="1">
          <mxGeometry x="452.5" y="388" width="80" height="30" as="geometry" />
        </mxCell>
        <mxCell id="dfr2jbNyBmmzeJJUGpiP-39" value="" style="endArrow=none;html=1;rounded=0;" edge="1" parent="1">
          <mxGeometry width="50" height="50" relative="1" as="geometry">
            <mxPoint x="466" y="520" as="sourcePoint" />
            <mxPoint x="490" y="569" as="targetPoint" />
          </mxGeometry>
        </mxCell>
        <mxCell id="dfr2jbNyBmmzeJJUGpiP-40" value="" style="ellipse;whiteSpace=wrap;html=1;aspect=fixed;shadow=0;sketch=0;fillStyle=solid;strokeColor=#330000;strokeWidth=1;fillColor=#FFFFFF;" vertex="1" parent="1">
          <mxGeometry x="481.5" y="569" width="20" height="20" as="geometry" />
        </mxCell>
        <mxCell id="dfr2jbNyBmmzeJJUGpiP-41" value="instructor" style="text;html=1;align=center;verticalAlign=middle;resizable=0;points=[];autosize=1;strokeColor=none;fillColor=none;" vertex="1" parent="1">
          <mxGeometry x="498.5" y="575" width="70" height="30" as="geometry" />
        </mxCell>
        <mxCell id="dfr2jbNyBmmzeJJUGpiP-43" value="firstName" style="text;html=1;align=center;verticalAlign=middle;resizable=0;points=[];autosize=1;strokeColor=none;fillColor=none;flipV=1;" vertex="1" parent="1">
          <mxGeometry x="315" y="834" width="70" height="30" as="geometry" />
        </mxCell>
        <mxCell id="dfr2jbNyBmmzeJJUGpiP-44" value="" style="edgeStyle=none;rounded=0;orthogonalLoop=1;jettySize=auto;html=1;exitX=0.75;exitY=0;exitDx=0;exitDy=0;endArrow=none;" edge="1" parent="1">
          <mxGeometry relative="1" as="geometry">
            <mxPoint x="491.9386153393543" y="783.138115486453" as="targetPoint" />
            <mxPoint x="491" y="783.9754676049874" as="sourcePoint" />
          </mxGeometry>
        </mxCell>
        <mxCell id="dfr2jbNyBmmzeJJUGpiP-47" value="genre" style="text;html=1;align=center;verticalAlign=middle;resizable=0;points=[];autosize=1;strokeColor=none;fillColor=none;flipV=1;" vertex="1" parent="1">
          <mxGeometry x="485" y="833" width="50" height="30" as="geometry" />
        </mxCell>
        <mxCell id="dfr2jbNyBmmzeJJUGpiP-48" value="" style="edgeStyle=none;rounded=0;orthogonalLoop=1;jettySize=auto;html=1;endArrow=none;" edge="1" parent="1">
          <mxGeometry relative="1" as="geometry">
            <mxPoint x="430" y="824" as="targetPoint" />
            <mxPoint x="430" y="760" as="sourcePoint" />
          </mxGeometry>
        </mxCell>
        <mxCell id="dfr2jbNyBmmzeJJUGpiP-49" value="" style="ellipse;whiteSpace=wrap;html=1;fillColor=#FFFFFF;strokeColor=#330000;shadow=0;sketch=0;fillStyle=solid;strokeWidth=1;flipV=1;" vertex="1" parent="1">
          <mxGeometry x="420" y="821" width="20" height="20" as="geometry" />
        </mxCell>
        <mxCell id="dfr2jbNyBmmzeJJUGpiP-50" value="lastName" style="text;html=1;align=center;verticalAlign=middle;resizable=0;points=[];autosize=1;strokeColor=none;fillColor=none;flipV=1;" vertex="1" parent="1">
          <mxGeometry x="399" y="834" width="70" height="30" as="geometry" />
        </mxCell>
        <mxCell id="dfr2jbNyBmmzeJJUGpiP-51" value="" style="edgeStyle=none;rounded=0;orthogonalLoop=1;jettySize=auto;html=1;exitX=0.75;exitY=0;exitDx=0;exitDy=0;endArrow=none;entryX=0;entryY=0;entryDx=0;entryDy=0;" edge="1" parent="1">
          <mxGeometry relative="1" as="geometry">
            <mxPoint x="375.92893218813424" y="821.928932188134" as="targetPoint" />
            <mxPoint x="381" y="759" as="sourcePoint" />
          </mxGeometry>
        </mxCell>
        <mxCell id="dfr2jbNyBmmzeJJUGpiP-53" value="" style="ellipse;whiteSpace=wrap;html=1;fillColor=#FFFFFF;strokeColor=#330000;shadow=0;sketch=0;fillStyle=solid;strokeWidth=1;flipV=1;" vertex="1" parent="1">
          <mxGeometry x="366" y="819" width="20" height="20" as="geometry" />
        </mxCell>
        <mxCell id="dfr2jbNyBmmzeJJUGpiP-54" value="" style="edgeStyle=none;rounded=0;orthogonalLoop=1;jettySize=auto;html=1;exitX=0.75;exitY=0;exitDx=0;exitDy=0;endArrow=none;entryX=1;entryY=0;entryDx=0;entryDy=0;" edge="1" parent="1">
          <mxGeometry relative="1" as="geometry">
            <mxPoint x="490.07106781186576" y="822.9289321881342" as="targetPoint" />
            <mxPoint x="481" y="760" as="sourcePoint" />
          </mxGeometry>
        </mxCell>
        <mxCell id="dfr2jbNyBmmzeJJUGpiP-56" value="" style="ellipse;whiteSpace=wrap;html=1;fillColor=#FFFFFF;strokeColor=#330000;shadow=0;sketch=0;fillStyle=solid;strokeWidth=1;flipV=1;" vertex="1" parent="1">
          <mxGeometry x="481" y="820" width="20" height="20" as="geometry" />
        </mxCell>
      </root>
    </mxGraphModel>
  </diagram>
</mxfile>
